<?xml version="1.0" encoding="utf-8"?>
<!-- Generator: Adobe Illustrator 15.0.0, SVG Export Plug-In . SVG Version: 6.00 Build 0)  -->
<!DOCTYPE svg PUBLIC "-//W3C//DTD SVG 1.0//EN" "http://www.w3.org/TR/2001/REC-SVG-20010904/DTD/svg10.dtd">
<svg version="1.0" id="Layer_1" xmlns="http://www.w3.org/2000/svg" xmlns:xlink="http://www.w3.org/1999/xlink" x="0px" y="0px"
	 width="1280px" height="1024px" viewBox="0 0 1280 1024" enable-background="new 0 0 1280 1024" xml:space="preserve">
<rect x="346.979" y="59.307" fill="#FFF8EE" width="269.738" height="399.722"/>
<rect x="12.515" y="542.955" fill="#FFF8EE" width="269.739" height="399.721"/>
<polyline fill="#008AC1" points="340.463,465.542 610.202,465.542 616.717,459.028 346.979,459.028 "/>
<polyline fill="#008AC1" points="346.979,459.028 346.979,59.307 340.463,65.822 340.463,465.542 "/>
<rect x="1003.092" y="62.956" fill="#FFFFFF" width="269.739" height="399.722"/>
<polyline fill="#3F3B3C" points="1003.092,462.678 1003.092,62.956 996.576,69.47 996.576,469.192 "/>
<polyline fill="#3F3B3C" points="996.576,469.192 1266.316,469.192 1272.831,462.678 1003.092,462.678 "/>
<rect x="1002.428" y="546.211" fill="#FFF8EE" width="269.74" height="399.723"/>
<rect x="344.833" y="546.213" fill="#FFF8EE" width="269.74" height="399.721"/>
<rect x="1003.092" y="62.956" fill="#FFF8EE" width="269.74" height="399.722"/>
<rect x="12.861" y="63.172" fill="#FFF8EE" width="269.738" height="399.72"/>
<polyline fill="#008AC1" points="338.318,952.448 608.057,952.448 614.573,945.934 344.833,945.934 "/>
<polyline fill="#008AC1" points="344.833,945.934 344.833,546.213 338.318,552.728 338.318,952.448 "/>
<polyline fill="#FFD021" points="995.913,952.448 1265.651,952.448 1272.168,945.934 1002.428,945.934 "/>
<polyline fill="#FFD021" points="1002.428,945.934 1002.428,546.211 995.913,552.727 995.913,952.448 "/>
<rect x="670.773" y="546.211" fill="#FFF8EE" width="269.739" height="399.723"/>
<polyline fill="#EF4D4D" points="664.259,952.448 933.998,952.448 940.513,945.934 670.773,945.934 "/>
<polyline fill="#EF4D4D" points="670.773,945.934 670.773,546.211 664.259,552.727 664.259,952.448 "/>
<rect x="670.773" y="64.315" fill="#FFF8EE" width="269.739" height="399.722"/>
<polyline fill="#E85E3A" points="664.259,470.552 933.998,470.552 940.513,464.037 670.773,464.037 "/>
<polyline fill="#E85E3A" points="670.773,464.037 670.773,64.315 664.259,70.83 664.259,470.552 "/>
<polyline fill="#DA3426" points="6,949.191 275.738,949.191 282.254,942.676 12.515,942.676 "/>
<polyline fill="#DA3426" points="12.515,942.676 12.515,542.955 6,549.47 6,949.191 "/>
<polyline fill="#4AB5AE" points="12.86,463.357 12.86,63.635 6.345,70.15 6.345,469.872 "/>
<polyline fill="#4AB5AE" points="6.345,469.872 276.084,469.872 282.6,463.357 12.86,463.357 "/>
<path fill="#008AC1" d="M600.737,295.246c0,12.414-10.064,22.476-22.477,22.476H384.119c-12.412,0-22.476-10.062-22.476-22.476
	V101.105c0-12.413,10.063-22.475,22.476-22.475h194.142c12.412,0,22.477,10.063,22.477,22.475V295.246z"/>
<circle fill="#FFE37B" cx="481.19" cy="198.176" r="89.547"/>
<path fill="#008AC1" d="M598.593,782.152c0,12.413-10.063,22.477-22.478,22.477h-194.14c-12.414,0-22.476-10.063-22.476-22.477
	v-194.14c0-12.414,10.062-22.477,22.476-22.477h194.14c12.414,0,22.478,10.063,22.478,22.477V782.152z"/>
<circle fill="#FFF8EE" cx="479.046" cy="685.082" r="89.548"/>
<polygon fill="#DA3426" points="420.707,734.595 542.534,734.595 542.534,694.203 485.56,694.203 485.56,659.674 420.707,673.355 
	"/>
<polygon fill="#DA3426" points="542.534,685.082 542.534,645.342 495.627,618.631 495.627,685.082 "/>
<rect x="460.529" y="651.857" fill="#DA3426" width="2.443" height="107.493"/>
<g id="XMLID_2_">
	<g>
		<path fill="#008AC1" d="M485.855,634.919c0,0.831-0.042,1.651-0.124,2.459l-23.98-2.459l22.58-8.446h0.003
			C485.318,629.102,485.855,631.948,485.855,634.919z"/>
		<path fill="#FAEE3F" d="M461.751,634.919l23.98,2.459c-0.068,0.671-0.162,1.333-0.286,1.984L461.751,634.919z"/>
		<path fill="#008AC1" d="M461.751,634.919l23.694,4.443c-0.626,3.368-1.951,6.488-3.824,9.205L461.751,634.919z"/>
		<path fill="#FAEE3F" d="M484.334,626.473h-0.003l-22.58,8.446l21.799-10.297C483.839,625.225,484.1,625.844,484.334,626.473z"/>
		<path fill="#008AC1" d="M483.55,624.622l-21.799,10.297l12.531-20.594l0.003-0.003
			C478.292,616.769,481.533,620.352,483.55,624.622z"/>
		<path fill="#FAEE3F" d="M461.751,634.919l19.87,13.648c-1.388,2.017-3.071,3.812-4.993,5.319L461.751,634.919z"/>
		<path fill="#008AC1" d="M461.751,634.919l14.877,18.968c-3.492,2.742-7.76,4.541-12.418,5.013L461.751,634.919z"/>
		<path fill="#FAEE3F" d="M474.285,614.322l-0.003,0.003l-12.531,20.594l6.268-23.28
			C470.253,612.234,472.357,613.146,474.285,614.322z"/>
		<path fill="#008AC1" d="M468.019,611.639l-6.268,23.28l-6.268-23.28c1.997-0.538,4.099-0.824,6.268-0.824
			C463.921,610.814,466.021,611.101,468.019,611.639z"/>
		<path fill="#FAEE3F" d="M461.751,634.919l2.459,23.98c-0.808,0.082-1.628,0.124-2.459,0.124V634.919z"/>
		<path fill="#008AC1" d="M461.751,634.919v24.104c-2.169,0-4.271-0.286-6.268-0.824L461.751,634.919z"/>
		<path fill="#FAEE3F" d="M455.483,611.639l6.268,23.28l-12.531-20.594l-0.003-0.003
			C451.145,613.146,453.249,612.234,455.483,611.639z"/>
		<path fill="#008AC1" d="M449.22,614.325l12.531,20.594l-19.593-14.043c1.886-2.628,4.29-4.863,7.059-6.554L449.22,614.325z"/>
		<path fill="#FAEE3F" d="M461.751,634.919l-6.268,23.28c-2.501-0.671-4.844-1.732-6.951-3.124L461.751,634.919z"/>
		<path fill="#008AC1" d="M461.751,634.919l-13.219,20.156c-1.766-1.156-3.368-2.54-4.771-4.11l0.003-0.003L461.751,634.919z"/>
		<path fill="#FAEE3F" d="M461.751,634.919l-17.987,16.043l-0.003,0.003c-0.424-0.476-0.831-0.968-1.212-1.476L461.751,634.919z"/>
		<path fill="#008AC1" d="M461.751,634.919l-19.202,14.57c-1.876-2.463-3.283-5.3-4.098-8.378L461.751,634.919z"/>
		<path fill="#FAEE3F" d="M461.751,634.919l-23.3,6.192c-0.524-1.978-0.805-4.053-0.805-6.192c0-0.6,0.022-1.195,0.068-1.785
			L461.751,634.919z"/>
		<path fill="#008AC1" d="M461.751,634.919l-24.036-1.785c0.257-3.554,1.286-6.896,2.922-9.854h0.003L461.751,634.919z"/>
		<path fill="#FAEE3F" d="M461.751,634.919L440.64,623.28h-0.003c0.459-0.834,0.968-1.635,1.521-2.404L461.751,634.919z"/>
	</g>
	<g>
	</g>
</g>
<path fill="#FFD021" d="M1256.188,782.15c0,12.413-10.064,22.477-22.478,22.477h-194.14c-12.414,0-22.477-10.063-22.477-22.477
	v-194.14c0-12.413,10.063-22.477,22.477-22.477h194.14c12.413,0,22.478,10.063,22.478,22.477V782.15z"/>
<circle fill="#3F3B3C" cx="1136.64" cy="685.082" r="89.548"/>
<path fill="#DA3426" d="M924.532,782.15c0,12.413-10.063,22.477-22.476,22.477H707.916c-12.413,0-22.476-10.063-22.476-22.477
	v-194.14c0-12.413,10.063-22.477,22.476-22.477h194.141c12.413,0,22.476,10.063,22.476,22.477V782.15z"/>
<circle fill="#008AC1" cx="804.986" cy="685.082" r="89.548"/>
<path fill="#E85E3A" d="M924.532,300.256c0,12.413-10.063,22.475-22.476,22.475H707.916c-12.413,0-22.476-10.062-22.476-22.475
	V106.115c0-12.414,10.063-22.476,22.476-22.476h194.141c12.412,0,22.476,10.062,22.476,22.476V300.256z"/>
<circle fill="#008AC1" cx="804.986" cy="203.186" r="89.547"/>
<path fill="#DA3426" d="M266.273,778.895c0,12.412-10.063,22.477-22.477,22.477H49.657c-12.413,0-22.476-10.064-22.476-22.477
	v-194.14c0-12.412,10.063-22.476,22.476-22.476h194.14c12.413,0,22.477,10.063,22.477,22.476V778.895z"/>
<circle fill="#FFD021" cx="146.727" cy="681.825" r="89.547"/>
<path fill="#4AB5AE" d="M266.618,299.576c0,12.413-10.063,22.476-22.476,22.476H50.003c-12.414,0-22.477-10.063-22.477-22.476
	V105.435c0-12.413,10.063-22.476,22.477-22.476h194.14c12.413,0,22.476,10.063,22.476,22.476V299.576z"/>
<path fill="#FFF8EE" d="M241.272,218.106 M49.555,194.557c2.543-3.148,5.263-6.172,8.154-9.063
	c10.438-10.439,22.596-18.635,36.132-24.36c14.017-5.929,28.903-8.935,44.249-8.935c15.344,0,30.231,3.006,44.248,8.935
	c13.537,5.726,25.693,13.921,36.133,24.36c9.525,9.526,17.184,20.482,22.802,32.613v18.808c-12.664-45.064-54.128-78.2-103.183-78.2
	c-31.727,0-60.277,13.86-79.914,35.842H49.555z"/>
<path fill="#FFF8EE" d="M58.166,194.486c19.64,21.981,48.197,35.913,79.924,35.913c49.054,0,90.516-33.132,103.181-78.195
	l0.002,18.804c-5.618,12.13-13.277,23.087-22.802,32.611c-10.439,10.439-22.596,18.636-36.133,24.362
	c-14.017,5.929-28.904,8.935-44.248,8.935c-15.346,0-30.232-3.006-44.249-8.935c-13.536-5.726-25.693-13.922-36.132-24.362
	c-2.892-2.89-5.611-5.914-8.154-9.063L58.166,194.486z"/>
<polyline fill="#FFF8EE" points="122.286,190.976 218.001,190.976 218.001,198.141 58.176,198.141 58.176,190.976 122.286,190.976 
	"/>
<polygon fill="#FFF8EE" points="140.739,300.496 135.438,300.496 134.505,100.665 141.672,100.665 "/>
<path fill="#FFF8EE" d="M134.505,97.064 M141.533,147.612c7.938-3.758,13.475-12.137,13.475-21.845
	c0-12.234-8.793-22.357-20.103-23.784 M134.905,101.984c-0.131-0.017-0.26-0.032-0.393-0.046l-0.008-4.874
	c14.25,1.145,25.306,13.582,25.306,28.704c0,12.496-7.684,22.506-18.392,26.479l0.022-4.596c0.03-0.014,0.063-0.023,0.092-0.038"/>
<path fill="#FFF8EE" d="M84.288,191.325c-3.663-2.807-6.963-6.53-6.886-13.725l3.566-2.356
	c-0.16,10.166,10.264,14.779,12.651,16.082H84.288z"/>
<path fill="#FFF8EE" d="M84.288,198.141c-3.663,2.807-6.963,6.531-6.886,13.726l3.566,2.355
	c-0.16-10.166,10.264-14.778,12.651-16.082H84.288z"/>
<path fill="#FFF8EE" d="M135.502,257.973c-7.861,0.001-25.887-3.793-25.887-3.793v10.619c0,0,20.074-2.988,25.887-2.951"/>
<path fill="#FFF8EE" d="M140.305,257.973c7.86,0.001,25.887-3.793,25.887-3.793v10.619c0,0-20.074-2.988-25.887-2.951"/>
<path fill="#3F3B3C" d="M1256.851,298.895c0,12.414-10.063,22.476-22.477,22.476h-194.141c-12.414,0-22.476-10.062-22.476-22.476
	v-194.14c0-12.414,10.062-22.476,22.476-22.476h194.141c12.414,0,22.477,10.062,22.477,22.476V298.895z"/>
<circle fill="#F2EBE1" cx="1137.304" cy="201.826" r="89.547"/>
<polygon fill="#C3A98A" points="1086.526,251.585 1091.404,251.871 1103.334,148.601 1097.969,148.287 "/>
<polygon fill="#383838" points="1103.342,251.988 1115.557,141.424 1119.465,141.424 1108.716,251.988 "/>
<polygon fill="#383838" points="1146.936,251.988 1159.15,141.424 1163.059,141.424 1152.311,251.988 "/>
<polygon fill="#383838" points="1173.553,249.841 1162.231,139.182 1166.054,138.359 1178.806,248.71 "/>
<polygon fill="#383838" points="1184.662,253.147 1183.195,141.921 1187.073,141.441 1189.997,252.487 "/>
<polygon fill="#C3A98A" points="1144.979,249.841 1133.656,139.182 1137.479,138.359 1150.232,248.71 "/>
<polygon fill="#C3A98A" points="1127.198,252.573 1123.984,141.382 1127.856,140.842 1132.52,251.827 "/>
<polygon fill="#735F47" points="1084.775,251.988 1089.662,251.988 1095.523,148.198 1090.15,148.198 "/>
<polygon fill="#383838" points="1100.313,252.179 1105.194,251.957 1106.354,148.007 1100.984,148.251 "/>
<polygon fill="#735F47" points="1110.069,248.111 1114.942,247.754 1113.226,143.813 1107.865,144.205 "/>
<polygon fill="#735F47" points="1150.125,248.111 1154.997,247.754 1153.281,143.813 1147.922,144.205 "/>
<polygon fill="#735F47" points="1163.658,256.366 1168.541,256.529 1177.863,152.992 1172.492,152.813 "/>
<polygon fill="#735F47" points="1143.432,253.532 1148.307,253.21 1147.306,149.259 1141.944,149.615 "/>
<polygon fill="#735F47" points="1192.502,248.345 1197.358,247.815 1191.924,144.002 1186.582,144.584 "/>
<polygon fill="#C3A98A" points="1154.664,251.988 1166.879,141.424 1170.787,141.424 1160.039,251.988 "/>
<polygon fill="#C3A98A" points="1178.52,252.573 1175.308,141.382 1179.178,140.842 1183.842,251.827 "/>
<polygon fill="#735F47" points="1083.722,252.573 1080.508,141.382 1084.379,140.842 1089.043,251.827 "/>
<polygon fill="#C3A98A" points="1193.354,252.573 1185.939,141.583 1189.788,140.896 1198.645,251.627 "/>
<polygon fill="#C3A98A" points="1115.958,252.471 1117.631,141.249 1121.522,140.878 1121.309,251.962 "/>
<polygon fill="#735F47" points="1194.175,252.193 1199.054,251.954 1199.861,148.002 1194.494,148.264 "/>
<polygon fill="#383838" points="1075.146,255.449 1080.026,255.213 1080.835,151.26 1075.466,151.521 "/>
<polygon fill="#735F47" points="1121.142,255.449 1126.021,255.213 1126.828,151.26 1121.461,151.521 "/>
<polygon fill="#735F47" points="1128.666,252.193 1133.545,251.954 1134.354,148.002 1128.986,148.264 "/>
<polygon fill="#C3A98A" points="1093.949,255.247 1098.185,255.247 1084.775,143.192 1079.943,143.192 "/>
<polygon fill="#C3A98A" points="1151.46,252.126 1155.654,252.712 1157.869,139.88 1153.083,139.211 "/>
<polygon fill="#383838" points="1163.059,245.611 1167.253,246.198 1169.469,133.365 1164.684,132.697 "/>
<g>
	<g>
		<path fill="#1E1B1B" d="M379.463,337.792h3.658l-5.723,16.839h-3.354l-5.676-16.839h3.776l3.611,12.758h0.047L379.463,337.792z"/>
		<path fill="#1E1B1B" d="M387.765,340.677h-3.283v-3.049h3.283V340.677z M387.765,342.154v12.477h-3.283v-12.477H387.765z"/>
		<path fill="#1E1B1B" d="M393.581,354.631h-3.283v-16.839h3.283V354.631z"/>
		<path fill="#1E1B1B" d="M399.397,354.631h-3.283v-16.839h3.283V354.631z"/>
		<path fill="#1E1B1B" d="M411.945,352.191c0,1.478,0.328,1.807,0.727,1.947v0.492h-3.541c-0.188-0.586-0.234-0.774-0.305-1.478
			c-0.751,0.774-1.807,1.806-4.034,1.806c-1.876,0-3.8-1.055-3.8-3.635c0-2.439,1.548-3.683,3.636-3.987l2.955-0.445
			c0.516-0.07,1.149-0.281,1.149-0.985c0-1.384-1.313-1.454-2.158-1.454c-1.642,0-1.923,1.009-2.017,1.735h-3.166
			c0.375-3.822,3.025-4.362,5.581-4.362c1.76,0,4.973,0.54,4.973,3.612V352.191z M408.732,348.557
			c-0.329,0.258-0.868,0.469-2.229,0.68c-1.22,0.212-2.228,0.517-2.228,1.877c0,1.148,0.891,1.501,1.524,1.501
			c1.454,0,2.932-0.938,2.932-2.463V348.557z"/>
		<path fill="#1E1B1B" d="M425.384,342.154v11.82c0,2.157-0.164,5.745-6.31,5.745c-2.579,0-5.3-1.102-5.44-3.752h3.564
			c0.141,0.633,0.398,1.267,2.299,1.267c1.759,0,2.603-0.845,2.603-2.861v-1.501l-0.047-0.047c-0.539,0.961-1.359,1.876-3.33,1.876
			c-3.002,0-5.37-2.087-5.37-6.449c0-4.315,2.438-6.427,5.183-6.427c2.322,0,3.26,1.36,3.659,2.182h0.047v-1.853H425.384z
			 M419.333,351.934c2.228,0,2.79-1.899,2.79-3.611c0-2.018-0.984-3.659-2.813-3.659c-1.22,0-2.58,0.892-2.58,3.8
			C416.729,350.058,417.386,351.934,419.333,351.934z"/>
		<path fill="#1E1B1B" d="M438.518,350.973c-0.867,3.002-3.354,3.986-5.488,3.986c-3.518,0-6.215-1.688-6.215-6.824
			c0-1.501,0.517-6.31,5.98-6.31c2.463,0,5.863,1.173,5.863,6.872v0.586h-8.56c0.094,0.938,0.281,3.049,2.931,3.049
			c0.915,0,1.854-0.469,2.111-1.359H438.518z M435.281,347.149c-0.188-2.017-1.478-2.627-2.533-2.627
			c-1.548,0-2.368,0.985-2.556,2.627H435.281z"/>
		<path fill="#1E1B1B" d="M456.951,343.303c-0.281-1.008-0.82-2.907-3.729-2.907c-1.688,0-4.175,1.125-4.175,5.886
			c0,3.025,1.196,5.746,4.175,5.746c1.946,0,3.307-1.102,3.729-3.166h3.519c-0.704,3.659-3.096,6.215-7.317,6.215
			c-4.479,0-7.692-3.025-7.692-8.842c0-5.887,3.4-8.889,7.739-8.889c5.042,0,7.083,3.472,7.271,5.957H456.951z"/>
		<path fill="#1E1B1B" d="M472.899,350.973c-0.867,3.002-3.354,3.986-5.487,3.986c-3.519,0-6.216-1.688-6.216-6.824
			c0-1.501,0.517-6.31,5.98-6.31c2.463,0,5.863,1.173,5.863,6.872v0.586h-8.56c0.094,0.938,0.281,3.049,2.932,3.049
			c0.914,0,1.853-0.469,2.11-1.359H472.899z M469.663,347.149c-0.188-2.017-1.478-2.627-2.533-2.627
			c-1.548,0-2.368,0.985-2.556,2.627H469.663z"/>
		<path fill="#1E1B1B" d="M485.799,354.631h-3.284v-7.575c0-0.915-0.047-2.463-2.134-2.463c-1.454,0-2.58,0.985-2.58,2.885v7.153
			h-3.283v-12.477h3.143v1.829h0.047c0.445-0.751,1.384-2.158,3.753-2.158c2.438,0,4.339,1.431,4.339,4.175V354.631z"/>
		<path fill="#1E1B1B" d="M491.825,342.154h2.041v2.345h-2.041v6.778c0,0.727,0.023,1.008,1.36,1.008
			c0.212,0,0.446-0.023,0.681-0.047v2.486c-0.517,0.023-1.032,0.047-1.548,0.047h-0.422c-2.838,0-3.354-1.079-3.354-2.697v-7.575
			h-1.688v-2.345h1.688v-3.378h3.283V342.154z"/>
		<path fill="#1E1B1B" d="M505.616,350.973c-0.867,3.002-3.354,3.986-5.487,3.986c-3.519,0-6.216-1.688-6.216-6.824
			c0-1.501,0.517-6.31,5.98-6.31c2.463,0,5.863,1.173,5.863,6.872v0.586h-8.56c0.094,0.938,0.281,3.049,2.932,3.049
			c0.914,0,1.853-0.469,2.11-1.359H505.616z M502.38,347.149c-0.188-2.017-1.478-2.627-2.533-2.627
			c-1.548,0-2.368,0.985-2.556,2.627H502.38z"/>
		<path fill="#1E1B1B" d="M507.211,342.154h3.143v2.157h0.047c0.681-1.267,1.431-2.486,3.424-2.486c0.212,0,0.423,0.023,0.634,0.048
			v3.33c-0.281-0.047-0.634-0.047-0.938-0.047c-2.557,0-3.025,1.595-3.025,2.979v6.496h-3.283V342.154z"/>
	</g>
</g>
<path fill="#1E1B1B" d="M433.282,171.627v-19.582h3.995c26.978,0,34.17-13.989,34.768-24.58h22.981v44.163L433.282,171.627z"/>
<rect x="467.052" y="171.403" fill="#1E1B1B" width="27.975" height="97.709"/>
<path fill="#FAEE3F" d="M501.512,137.621c-0.001,0.006-0.004,0.013-0.006,0.019"/>
<g>
	<g>
		<path fill="#1E1B1B" d="M1029.339,359.583h-3.519v-16.839h11.984v2.979h-8.466v3.799h7.41v2.979h-7.41V359.583z"/>
		<path fill="#1E1B1B" d="M1044.138,359.911c-3.354,0-6.379-2.063-6.379-6.566s3.025-6.567,6.379-6.567s6.379,2.064,6.379,6.567
			S1047.491,359.911,1044.138,359.911z M1044.138,349.545c-2.533,0-3.002,2.205-3.002,3.8s0.469,3.799,3.002,3.799
			c2.532,0,3.002-2.204,3.002-3.799S1046.67,349.545,1044.138,349.545z"/>
		<path fill="#1E1B1B" d="M1052.088,347.106h3.143v2.157h0.047c0.681-1.267,1.431-2.486,3.424-2.486
			c0.212,0,0.423,0.023,0.634,0.047v3.331c-0.281-0.047-0.634-0.047-0.938-0.047c-2.557,0-3.025,1.595-3.025,2.979v6.496h-3.283
			V347.106z"/>
		<path fill="#1E1B1B" d="M1070.779,355.925c-0.867,3.002-3.354,3.986-5.488,3.986c-3.518,0-6.215-1.688-6.215-6.824
			c0-1.501,0.517-6.31,5.98-6.31c2.463,0,5.863,1.173,5.863,6.872v0.586h-8.56c0.094,0.938,0.281,3.049,2.931,3.049
			c0.915,0,1.854-0.469,2.111-1.359H1070.779z M1067.543,352.102c-0.188-2.017-1.478-2.627-2.533-2.627
			c-1.548,0-2.368,0.985-2.556,2.627H1067.543z"/>
		<path fill="#1E1B1B" d="M1078.754,359.583h-3.447l-4.479-12.477h3.659l2.579,9.193h0.047l2.65-9.193h3.494L1078.754,359.583z"/>
		<path fill="#1E1B1B" d="M1094.632,355.925c-0.867,3.002-3.354,3.986-5.487,3.986c-3.519,0-6.216-1.688-6.216-6.824
			c0-1.501,0.517-6.31,5.98-6.31c2.463,0,5.863,1.173,5.863,6.872v0.586h-8.56c0.094,0.938,0.281,3.049,2.932,3.049
			c0.914,0,1.853-0.469,2.11-1.359H1094.632z M1091.396,352.102c-0.188-2.017-1.478-2.627-2.533-2.627
			c-1.548,0-2.368,0.985-2.556,2.627H1091.396z"/>
		<path fill="#1E1B1B" d="M1096.227,347.106h3.143v2.157h0.047c0.681-1.267,1.431-2.486,3.424-2.486
			c0.212,0,0.423,0.023,0.634,0.047v3.331c-0.281-0.047-0.634-0.047-0.938-0.047c-2.557,0-3.025,1.595-3.025,2.979v6.496h-3.283
			V347.106z"/>
		<path fill="#1E1B1B" d="M1107.461,342.744h3.753c2.157,9.217,2.368,10.39,2.674,12.313h0.047
			c0.305-1.759,0.563-3.471,2.345-12.313h3.729c1.97,9.24,2.134,10.132,2.509,12.313h0.047c0.281-1.595,0.563-3.049,2.744-12.313
			h3.565l-4.738,16.839h-3.377c-1.735-8.255-2.04-9.897-2.604-13.134h-0.047c-0.516,3.236-0.797,4.456-2.603,13.134h-3.284
			L1107.461,342.744z"/>
		<path fill="#1E1B1B" d="M1134.291,359.911c-3.354,0-6.379-2.063-6.379-6.566s3.025-6.567,6.379-6.567s6.379,2.064,6.379,6.567
			S1137.645,359.911,1134.291,359.911z M1134.291,349.545c-2.533,0-3.002,2.205-3.002,3.8s0.469,3.799,3.002,3.799
			c2.532,0,3.002-2.204,3.002-3.799S1136.823,349.545,1134.291,349.545z"/>
		<path fill="#1E1B1B" d="M1147.918,359.911c-3.354,0-6.379-2.063-6.379-6.566s3.025-6.567,6.379-6.567s6.379,2.064,6.379,6.567
			S1151.271,359.911,1147.918,359.911z M1147.918,349.545c-2.533,0-3.002,2.205-3.002,3.8s0.469,3.799,3.002,3.799
			c2.532,0,3.002-2.204,3.002-3.799S1150.45,349.545,1147.918,349.545z"/>
		<path fill="#1E1B1B" d="M1167.29,359.583h-3.214v-1.571h-0.047c-0.797,1.407-2.251,1.899-3.611,1.899
			c-3.705,0-5.253-3.283-5.253-6.707c0-4.315,2.438-6.427,5.183-6.427c2.11,0,3.096,1.149,3.611,1.947h0.047v-5.98h3.284V359.583z
			 M1161.239,357.214c2.087,0,2.908-1.735,2.908-3.588c0-1.993-0.563-4.011-2.814-4.011c-2.088,0-2.791,1.854-2.791,3.823
			C1158.542,354.916,1159.128,357.214,1161.239,357.214z"/>
		<path fill="#1E1B1B" d="M1176.577,350.905c-0.141-0.797-0.423-1.642-2.205-1.642s-2.017,0.681-2.017,1.22
			c0,1.97,7.81,0.539,7.81,5.136c0,3.636-3.518,4.292-5.465,4.292c-2.837,0-5.909-0.984-6.004-4.315h3.378
			c0,1.056,0.656,1.83,2.721,1.83c1.688,0,2.087-0.821,2.087-1.29c0-2.088-7.739-0.517-7.739-5.184c0-1.829,1.149-4.175,5.042-4.175
			c2.439,0,5.348,0.61,5.605,4.128H1176.577z"/>
	</g>
</g>
<path fill="#FAEE3F" d="M1157.626,141.269c-0.003,0.008-0.005,0.014-0.008,0.02"/>
<g>
	<g>
		<path fill="#1E1B1B" d="M369.954,838.278h-3.706l6.004-16.839h4.058l5.934,16.839h-3.823l-1.078-3.471h-6.215L369.954,838.278z
			 M372.064,831.899h4.292l-2.087-6.661h-0.047L372.064,831.899z"/>
		<path fill="#1E1B1B" d="M386.605,827.607h0.047c0.609-0.985,1.524-2.135,3.729-2.135c2.743,0,5.183,2.111,5.183,6.427
			c0,3.424-1.548,6.707-5.253,6.707c-2.299,0-3.12-1.243-3.519-1.923h-0.047v6.449h-3.283v-17.331h3.143V827.607z M389.49,835.909
			c2.11,0,2.697-2.298,2.697-3.775c0-1.97-0.704-3.823-2.791-3.823c-2.252,0-2.791,2.018-2.791,4.011
			C386.605,834.174,387.403,835.909,389.49,835.909z"/>
		<path fill="#1E1B1B" d="M407.268,835.839c0,1.478,0.328,1.807,0.727,1.947v0.492h-3.541c-0.188-0.586-0.234-0.774-0.305-1.478
			c-0.751,0.774-1.807,1.806-4.034,1.806c-1.876,0-3.8-1.055-3.8-3.635c0-2.439,1.548-3.683,3.636-3.987l2.955-0.445
			c0.516-0.07,1.149-0.281,1.149-0.985c0-1.384-1.313-1.454-2.158-1.454c-1.642,0-1.923,1.009-2.017,1.735h-3.166
			c0.375-3.822,3.025-4.362,5.581-4.362c1.76,0,4.973,0.54,4.973,3.612V835.839z M404.055,832.204
			c-0.329,0.258-0.868,0.469-2.229,0.68c-1.22,0.212-2.228,0.517-2.228,1.877c0,1.148,0.891,1.501,1.524,1.501
			c1.454,0,2.932-0.938,2.932-2.463V832.204z"/>
		<path fill="#1E1B1B" d="M409.472,825.802h3.143v2.157h0.047c0.681-1.267,1.431-2.486,3.424-2.486c0.212,0,0.423,0.023,0.634,0.047
			v3.331c-0.281-0.047-0.634-0.047-0.938-0.047c-2.556,0-3.025,1.595-3.025,2.979v6.496h-3.283V825.802z"/>
		<path fill="#1E1B1B" d="M422.065,825.802h2.041v2.345h-2.041v6.778c0,0.727,0.023,1.008,1.36,1.008
			c0.212,0,0.446-0.023,0.681-0.047v2.486c-0.517,0.023-1.032,0.047-1.548,0.047h-0.422c-2.838,0-3.354-1.079-3.354-2.697v-7.575
			h-1.688v-2.345h1.688v-3.378h3.283V825.802z"/>
		<path fill="#1E1B1B" d="M443.338,838.278h-3.283v-7.575c0-1.853-0.821-2.463-1.782-2.463c-1.643,0-2.229,1.079-2.229,2.557v7.481
			h-3.283v-7.505c0-1.056,0-2.533-1.97-2.533c-1.548,0-2.041,1.079-2.041,2.439v7.599h-3.283v-12.477h3.143v1.829h0.047
			c0.422-0.821,1.337-2.158,3.541-2.158c1.807,0,2.627,0.657,3.472,1.994c0.422-0.61,1.337-1.994,3.33-1.994
			c2.439,0,4.339,1.431,4.339,4.175V838.278z"/>
		<path fill="#1E1B1B" d="M456.354,834.62c-0.867,3.002-3.354,3.986-5.488,3.986c-3.518,0-6.215-1.688-6.215-6.824
			c0-1.501,0.517-6.31,5.98-6.31c2.463,0,5.863,1.173,5.863,6.872v0.586h-8.56c0.094,0.938,0.281,3.049,2.931,3.049
			c0.915,0,1.854-0.469,2.111-1.359H456.354z M453.117,830.797c-0.188-2.017-1.478-2.627-2.533-2.627
			c-1.548,0-2.368,0.985-2.556,2.627H453.117z"/>
		<path fill="#1E1B1B" d="M469.254,838.278h-3.284v-7.575c0-0.915-0.047-2.463-2.134-2.463c-1.454,0-2.58,0.985-2.58,2.885v7.153
			h-3.283v-12.477h3.143v1.829h0.047c0.445-0.751,1.384-2.158,3.753-2.158c2.438,0,4.339,1.431,4.339,4.175V838.278z"/>
		<path fill="#1E1B1B" d="M475.28,825.802h2.041v2.345h-2.041v6.778c0,0.727,0.023,1.008,1.36,1.008
			c0.212,0,0.446-0.023,0.681-0.047v2.486c-0.517,0.023-1.032,0.047-1.548,0.047h-0.422c-2.838,0-3.354-1.079-3.354-2.697v-7.575
			h-1.688v-2.345h1.688v-3.378h3.283V825.802z"/>
		<path fill="#1E1B1B" d="M485.764,829.601c-0.141-0.797-0.423-1.642-2.205-1.642s-2.017,0.681-2.017,1.22
			c0,1.97,7.81,0.539,7.81,5.136c0,3.636-3.518,4.292-5.465,4.292c-2.837,0-5.909-0.984-6.004-4.315h3.378
			c0,1.056,0.656,1.83,2.721,1.83c1.688,0,2.087-0.821,2.087-1.29c0-2.088-7.739-0.517-7.739-5.184c0-1.829,1.149-4.175,5.042-4.175
			c2.439,0,5.348,0.61,5.605,4.128H485.764z"/>
	</g>
</g>
<g>
	<g>
		<path fill="#1E1B1B" d="M1028.674,842.836h-3.519v-16.839h7.692c3.26,0,5.23,2.087,5.23,5.394c0,1.524-0.845,5.371-5.371,5.371
			h-4.033V842.836z M1031.934,833.854c2.626,0,2.626-1.876,2.626-2.627c0-1.642-0.914-2.321-3.096-2.321h-2.79v4.948H1031.934z"/>
		<path fill="#1E1B1B" d="M1049.852,839.178c-0.867,3.002-3.354,3.986-5.488,3.986c-3.518,0-6.215-1.688-6.215-6.824
			c0-1.501,0.517-6.31,5.98-6.31c2.463,0,5.863,1.173,5.863,6.872v0.586h-8.56c0.094,0.938,0.281,3.049,2.931,3.049
			c0.915,0,1.854-0.469,2.111-1.359H1049.852z M1046.615,835.354c-0.188-2.017-1.478-2.627-2.533-2.627
			c-1.548,0-2.368,0.985-2.556,2.627H1046.615z"/>
		<path fill="#1E1B1B" d="M1062.868,842.836h-3.214v-1.571h-0.047c-0.797,1.407-2.251,1.899-3.611,1.899
			c-3.705,0-5.253-3.283-5.253-6.707c0-4.315,2.438-6.427,5.183-6.427c2.11,0,3.096,1.149,3.611,1.947h0.047v-5.98h3.284V842.836z
			 M1056.817,840.467c2.087,0,2.908-1.735,2.908-3.588c0-1.993-0.563-4.011-2.814-4.011c-2.088,0-2.791,1.854-2.791,3.823
			C1054.12,838.169,1054.706,840.467,1056.817,840.467z"/>
		<path fill="#1E1B1B" d="M1075.813,839.178c-0.867,3.002-3.354,3.986-5.487,3.986c-3.519,0-6.216-1.688-6.216-6.824
			c0-1.501,0.517-6.31,5.98-6.31c2.463,0,5.863,1.173,5.863,6.872v0.586h-8.56c0.094,0.938,0.281,3.049,2.932,3.049
			c0.914,0,1.853-0.469,2.11-1.359H1075.813z M1072.577,835.354c-0.188-2.017-1.478-2.627-2.533-2.627
			c-1.548,0-2.368,0.985-2.556,2.627H1072.577z"/>
		<path fill="#1E1B1B" d="M1084.492,834.158c-0.141-0.797-0.423-1.642-2.205-1.642s-2.017,0.681-2.017,1.22
			c0,1.97,7.81,0.539,7.81,5.136c0,3.636-3.518,4.292-5.465,4.292c-2.837,0-5.909-0.984-6.004-4.315h3.378
			c0,1.056,0.656,1.83,2.721,1.83c1.688,0,2.087-0.821,2.087-1.29c0-2.088-7.739-0.517-7.739-5.184c0-1.829,1.149-4.175,5.042-4.175
			c2.439,0,5.348,0.61,5.605,4.128H1084.492z"/>
		<path fill="#1E1B1B" d="M1093.45,830.359h2.041v2.345h-2.041v6.778c0,0.727,0.023,1.008,1.36,1.008
			c0.212,0,0.446-0.023,0.681-0.047v2.486c-0.517,0.023-1.032,0.047-1.548,0.047h-0.422c-2.838,0-3.354-1.079-3.354-2.697v-7.575
			h-1.688v-2.345h1.688v-3.378h3.283V830.359z"/>
		<path fill="#1E1B1B" d="M1096.852,830.359h3.143v2.157h0.047c0.681-1.267,1.431-2.486,3.424-2.486
			c0.212,0,0.423,0.023,0.634,0.048v3.33c-0.281-0.047-0.634-0.047-0.938-0.047c-2.557,0-3.025,1.595-3.025,2.979v6.496h-3.283
			V830.359z"/>
		<path fill="#1E1B1B" d="M1108.319,828.882h-3.283v-3.049h3.283V828.882z M1108.319,830.359v12.477h-3.283v-12.477H1108.319z"/>
		<path fill="#1E1B1B" d="M1120.867,840.396c0,1.478,0.328,1.807,0.727,1.947v0.492h-3.541c-0.188-0.586-0.234-0.774-0.305-1.478
			c-0.751,0.774-1.807,1.806-4.034,1.806c-1.876,0-3.8-1.055-3.8-3.635c0-2.439,1.548-3.683,3.636-3.987l2.955-0.445
			c0.516-0.07,1.149-0.281,1.149-0.985c0-1.384-1.313-1.454-2.158-1.454c-1.642,0-1.923,1.009-2.017,1.735h-3.166
			c0.375-3.822,3.025-4.362,5.581-4.362c1.76,0,4.973,0.54,4.973,3.612V840.396z M1117.654,836.762
			c-0.329,0.258-0.868,0.469-2.229,0.68c-1.22,0.212-2.228,0.517-2.228,1.877c0,1.148,0.891,1.501,1.524,1.501
			c1.454,0,2.932-0.938,2.932-2.463V836.762z"/>
		<path fill="#1E1B1B" d="M1134.376,842.836h-3.284v-7.575c0-0.915-0.047-2.463-2.134-2.463c-1.454,0-2.58,0.985-2.58,2.885v7.153
			h-3.283v-12.477h3.143v1.829h0.047c0.445-0.751,1.384-2.158,3.753-2.158c2.438,0,4.339,1.431,4.339,4.175V842.836z"/>
		<path fill="#1E1B1B" d="M1139.513,825.997h3.753c2.157,9.217,2.368,10.39,2.674,12.313h0.047
			c0.305-1.759,0.563-3.471,2.345-12.313h3.729c1.97,9.24,2.134,10.132,2.509,12.313h0.047c0.282-1.595,0.563-3.049,2.744-12.313
			h3.565l-4.738,16.839h-3.377c-1.735-8.256-2.04-9.897-2.604-13.134h-0.047c-0.516,3.236-0.797,4.456-2.603,13.134h-3.284
			L1139.513,825.997z"/>
		<path fill="#1E1B1B" d="M1171.268,840.396c0,1.478,0.328,1.807,0.727,1.947v0.492h-3.541c-0.188-0.586-0.234-0.774-0.305-1.478
			c-0.751,0.774-1.807,1.806-4.034,1.806c-1.876,0-3.8-1.055-3.8-3.635c0-2.439,1.548-3.683,3.636-3.987l2.955-0.445
			c0.516-0.07,1.149-0.281,1.149-0.985c0-1.384-1.313-1.454-2.158-1.454c-1.642,0-1.923,1.009-2.017,1.735h-3.166
			c0.375-3.822,3.025-4.362,5.581-4.362c1.76,0,4.973,0.54,4.973,3.612V840.396z M1168.055,836.762
			c-0.329,0.258-0.868,0.469-2.229,0.68c-1.22,0.212-2.228,0.517-2.228,1.877c0,1.148,0.891,1.501,1.524,1.501
			c1.454,0,2.932-0.938,2.932-2.463V836.762z"/>
		<path fill="#1E1B1B" d="M1176.873,842.836h-3.283v-16.839h3.283V842.836z"/>
		<path fill="#1E1B1B" d="M1182.689,842.836h-3.283v-16.839h3.283v9.1l4.128-4.737h4.034l-4.409,4.831l4.526,7.646h-3.94
			l-2.979-5.348l-1.36,1.407V842.836z"/>
		<path fill="#1E1B1B" d="M1204.571,842.836h-3.378l-1.946-9.1h-0.047l-1.946,9.1h-3.377l-3.519-12.477h3.494l1.947,8.959h0.047
			l1.759-8.959h3.307l1.876,8.959h0.047l1.947-8.959h3.377L1204.571,842.836z"/>
		<path fill="#1E1B1B" d="M1218.831,840.396c0,1.478,0.328,1.807,0.727,1.947v0.492h-3.541c-0.188-0.586-0.234-0.774-0.305-1.478
			c-0.751,0.774-1.807,1.806-4.034,1.806c-1.876,0-3.8-1.055-3.8-3.635c0-2.439,1.548-3.683,3.636-3.987l2.955-0.445
			c0.516-0.07,1.149-0.281,1.149-0.985c0-1.384-1.313-1.454-2.158-1.454c-1.642,0-1.923,1.009-2.017,1.735h-3.166
			c0.375-3.822,3.025-4.362,5.581-4.362c1.76,0,4.973,0.54,4.973,3.612V840.396z M1215.618,836.762
			c-0.329,0.258-0.868,0.469-2.229,0.68c-1.22,0.212-2.228,0.517-2.228,1.877c0,1.148,0.891,1.501,1.524,1.501
			c1.454,0,2.932-0.938,2.932-2.463V836.762z"/>
		<path fill="#1E1B1B" d="M1227.416,842.625c-1.548,4.62-1.971,5.229-4.832,5.229c-0.445,0-1.008-0.023-1.478-0.047v-2.626
			c0.141,0.023,0.353,0.047,0.634,0.047c1.196,0,1.853-0.165,2.157-1.877l-4.597-12.992h3.659l2.673,9.193h0.047l2.557-9.193h3.471
			L1227.416,842.625z"/>
	</g>
</g>
<path fill="#FAEE3F" d="M1156.963,624.525c-0.004,0.006-0.006,0.013-0.008,0.021"/>
<g>
	<g>
		<path fill="#E70B8A" d="M1156.934,624.605l-14.383,39.856h-11.823l-14.377-39.849c-0.856-2.327-1.325-4.84-1.325-7.465
			c0-11.938,9.678-21.614,21.615-21.614c11.937,0,21.613,9.676,21.613,21.614c0,2.59-0.456,5.075-1.291,7.377L1156.934,624.605z"/>
		<path fill="#E70B8A" d="M1193.751,656.667l-38.351,18.014l-8.361-8.361l18.01-38.342c1.041-2.252,2.488-4.36,4.343-6.216
			c8.442-8.441,22.127-8.44,30.569,0c8.44,8.44,8.44,22.126,0,30.566c-1.832,1.833-3.913,3.268-6.132,4.303L1193.751,656.667z"/>
		<path fill="#E70B8A" d="M1197.115,705.374l-39.855-14.382v-11.824l39.848-14.376c2.327-0.858,4.842-1.325,7.465-1.325
			c11.938,0,21.615,9.677,21.615,21.615c0,11.937-9.677,21.613-21.615,21.613c-2.59,0-5.075-0.457-7.377-1.293L1197.115,705.374z"/>
		<path fill="#E70B8A" d="M1165.055,742.192l-18.015-38.352l8.361-8.359l38.342,18.009c2.251,1.04,4.36,2.487,6.218,4.343
			c8.44,8.441,8.44,22.127,0,30.567c-8.442,8.44-22.127,8.44-30.569,0c-1.831-1.832-3.265-3.912-4.302-6.13L1165.055,742.192z"/>
		<path fill="#E70B8A" d="M1116.348,745.556l14.381-39.854h11.825l14.377,39.847c0.856,2.326,1.323,4.842,1.323,7.466
			c0,11.938-9.676,21.615-21.613,21.615c-11.937,0-21.615-9.678-21.615-21.615c0-2.59,0.455-5.075,1.293-7.377L1116.348,745.556z"/>
		<path fill="#E70B8A" d="M1079.529,713.494l38.351-18.013l8.361,8.36l-18.011,38.344c-1.04,2.249-2.487,4.359-4.342,6.215
			c-8.441,8.441-22.127,8.44-30.568,0s-8.441-22.126,0-30.567c1.832-1.831,3.912-3.267,6.131-4.302L1079.529,713.494z"/>
		<path fill="#E70B8A" d="M1076.165,664.788l39.856,14.382v11.823l-39.849,14.378c-2.326,0.856-4.842,1.324-7.466,1.324
			c-11.938,0-21.615-9.677-21.615-21.613c0-11.938,9.678-21.615,21.615-21.615c2.591,0,5.075,0.455,7.377,1.293L1076.165,664.788z"
			/>
		<path fill="#E70B8A" d="M1108.226,627.97l18.015,38.35l-8.361,8.362l-38.344-18.01c-2.25-1.039-4.359-2.487-6.215-4.343
			c-8.441-8.441-8.441-22.127,0-30.567c8.439-8.44,22.127-8.44,30.568,0c1.832,1.832,3.266,3.91,4.301,6.131L1108.226,627.97z"/>
	</g>
</g>
<circle fill="#FFD021" cx="1136.64" cy="685.082" r="27.545"/>
<g>
	<g>
		<path fill="#1E1B1B" d="M697.021,842.836h-3.519v-16.839h7.692c3.26,0,5.23,2.087,5.23,5.394c0,1.524-0.845,5.371-5.371,5.371
			h-4.033V842.836z M700.281,833.854c2.626,0,2.626-1.876,2.626-2.627c0-1.642-0.914-2.321-3.096-2.321h-2.79v4.948H700.281z"/>
		<path fill="#1E1B1B" d="M711.562,828.882h-3.283v-3.049h3.283V828.882z M711.562,830.359v12.477h-3.283v-12.477H711.562z"/>
		<path fill="#1E1B1B" d="M724.742,838.286c-0.117,1.29-1.126,4.878-5.699,4.878c-4.69,0-5.769-3.588-5.769-6.215
			c0-4.034,1.759-6.919,5.98-6.919c1.97,0,5.206,0.892,5.511,4.785h-3.33c-0.141-0.798-0.609-2.018-2.017-2.018h-0.164
			c-2.064,0-2.604,2.064-2.604,3.612c0,1.36,0.047,4.057,2.532,4.057c1.666,0,2.229-1.595,2.229-2.181H724.742z"/>
		<path fill="#1E1B1B" d="M737.618,842.836h-3.284v-7.575c0-0.915-0.047-2.463-2.134-2.463c-1.454,0-2.58,0.985-2.58,2.885v7.153
			h-3.283v-12.477h3.143v1.829h0.047c0.445-0.751,1.384-2.158,3.753-2.158c2.438,0,4.339,1.431,4.339,4.175V842.836z"/>
		<path fill="#1E1B1B" d="M743.341,828.882h-3.283v-3.049h3.283V828.882z M743.341,830.359v12.477h-3.283v-12.477H743.341z"/>
		<path fill="#1E1B1B" d="M756.521,838.286c-0.117,1.29-1.126,4.878-5.699,4.878c-4.69,0-5.769-3.588-5.769-6.215
			c0-4.034,1.759-6.919,5.98-6.919c1.97,0,5.206,0.892,5.511,4.785h-3.33c-0.141-0.798-0.609-2.018-2.017-2.018h-0.164
			c-2.064,0-2.604,2.064-2.604,3.612c0,1.36,0.047,4.057,2.532,4.057c1.666,0,2.229-1.595,2.229-2.181H756.521z"/>
		<path fill="#1E1B1B" d="M765.41,842.836h-3.706l6.004-16.839h4.058l5.934,16.839h-3.823l-1.078-3.471h-6.215L765.41,842.836z
			 M767.521,836.457h4.292l-2.087-6.661h-0.047L767.521,836.457z"/>
		<path fill="#1E1B1B" d="M778.966,830.359h3.143v2.157h0.047c0.681-1.267,1.431-2.486,3.424-2.486c0.212,0,0.423,0.023,0.634,0.048
			v3.33c-0.281-0.047-0.634-0.047-0.938-0.047c-2.556,0-3.025,1.595-3.025,2.979v6.496h-3.283V830.359z"/>
		<path fill="#1E1B1B" d="M797.658,839.178c-0.867,3.002-3.354,3.986-5.488,3.986c-3.518,0-6.215-1.688-6.215-6.824
			c0-1.501,0.517-6.31,5.98-6.31c2.463,0,5.863,1.173,5.863,6.872v0.586h-8.56c0.094,0.938,0.281,3.049,2.931,3.049
			c0.915,0,1.854-0.469,2.111-1.359H797.658z M794.422,835.354c-0.188-2.017-1.478-2.627-2.533-2.627
			c-1.548,0-2.368,0.985-2.556,2.627H794.422z"/>
		<path fill="#1E1B1B" d="M809.385,840.396c0,1.478,0.328,1.807,0.727,1.947v0.492h-3.541c-0.188-0.586-0.234-0.774-0.305-1.478
			c-0.751,0.774-1.807,1.806-4.034,1.806c-1.876,0-3.8-1.055-3.8-3.635c0-2.439,1.548-3.683,3.636-3.987l2.955-0.445
			c0.516-0.07,1.149-0.281,1.149-0.985c0-1.384-1.313-1.454-2.158-1.454c-1.642,0-1.923,1.009-2.017,1.735h-3.166
			c0.375-3.822,3.025-4.362,5.581-4.362c1.76,0,4.973,0.54,4.973,3.612V840.396z M806.172,836.762
			c-0.329,0.258-0.868,0.469-2.229,0.68c-1.22,0.212-2.228,0.517-2.228,1.877c0,1.148,0.891,1.501,1.524,1.501
			c1.454,0,2.932-0.938,2.932-2.463V836.762z"/>
	</g>
</g>
<path fill="#FAEE3F" d="M825.309,624.525c-0.002,0.006-0.005,0.013-0.008,0.021"/>
<g>
	<g>
		<path fill="#FFD021" d="M825.279,624.605l-14.381,39.856h-11.824l-14.379-39.849c-0.856-2.327-1.323-4.84-1.323-7.465
			c0-11.938,9.677-21.614,21.613-21.614c11.938,0,21.615,9.676,21.615,21.614c0,2.59-0.455,5.075-1.292,7.377L825.279,624.605z"/>
		<path fill="#FFD021" d="M862.098,656.667l-38.352,18.014l-8.361-8.361l18.011-38.342c1.04-2.252,2.487-4.36,4.343-6.216
			c8.441-8.441,22.128-8.44,30.567,0c8.441,8.44,8.441,22.126,0,30.566c-1.832,1.833-3.912,3.268-6.13,4.303L862.098,656.667z"/>
		<path fill="#FFD021" d="M865.461,705.374l-39.854-14.382v-11.824l39.847-14.376c2.326-0.858,4.842-1.325,7.466-1.325
			c11.938,0,21.615,9.677,21.615,21.615c0,11.937-9.677,21.613-21.615,21.613c-2.59,0-5.075-0.457-7.377-1.293L865.461,705.374z"/>
		<path fill="#FFD021" d="M833.4,742.192l-18.014-38.352l8.361-8.359l38.342,18.009c2.252,1.04,4.36,2.487,6.216,4.343
			c8.441,8.441,8.441,22.127,0,30.567c-8.439,8.44-22.126,8.44-30.567,0c-1.831-1.832-3.266-3.912-4.302-6.13L833.4,742.192z"/>
		<path fill="#FFD021" d="M784.694,745.556l14.381-39.854h11.823l14.379,39.847c0.855,2.326,1.323,4.842,1.323,7.466
			c0,11.938-9.677,21.615-21.614,21.615c-11.936,0-21.614-9.678-21.614-21.615c0-2.59,0.456-5.075,1.293-7.377L784.694,745.556z"/>
		<path fill="#FFD021" d="M747.875,713.494l38.35-18.013l8.363,8.36l-18.011,38.344c-1.04,2.249-2.487,4.359-4.343,6.215
			c-8.441,8.441-22.127,8.44-30.567,0c-8.442-8.44-8.442-22.126,0-30.567c1.832-1.831,3.911-3.267,6.13-4.302L747.875,713.494z"/>
		<path fill="#FFD021" d="M744.512,664.788l39.854,14.382v11.823l-39.847,14.378c-2.326,0.856-4.842,1.324-7.466,1.324
			c-11.938,0-21.615-9.677-21.615-21.613c0-11.938,9.679-21.615,21.615-21.615c2.59,0,5.074,0.455,7.377,1.293L744.512,664.788z"/>
		<path fill="#FFD021" d="M776.572,627.97l18.014,38.35l-8.361,8.362l-38.342-18.01c-2.25-1.039-4.36-2.487-6.217-4.343
			c-8.441-8.441-8.441-22.127,0-30.567s22.127-8.44,30.568,0c1.832,1.832,3.267,3.91,4.302,6.131L776.572,627.97z"/>
	</g>
</g>
<circle fill="#DA3426" cx="804.986" cy="685.082" r="27.545"/>
<g>
	<g>
		<path fill="#1E1B1B" d="M697.021,359.639h-3.519V342.8h11.984v2.979h-8.466v3.799h7.41v2.979h-7.41V359.639z"/>
		<path fill="#1E1B1B" d="M705.557,347.162h3.143v2.157h0.047c0.681-1.267,1.431-2.486,3.424-2.486c0.212,0,0.423,0.023,0.634,0.048
			v3.33c-0.281-0.047-0.634-0.047-0.938-0.047c-2.557,0-3.025,1.595-3.025,2.979v6.496h-3.283V347.162z"/>
		<path fill="#1E1B1B" d="M717.025,345.685h-3.283v-3.049h3.283V345.685z M717.025,347.162v12.477h-3.283v-12.477H717.025z"/>
		<path fill="#1E1B1B" d="M730.183,355.98c-0.867,3.002-3.354,3.986-5.487,3.986c-3.519,0-6.216-1.688-6.216-6.824
			c0-1.501,0.517-6.31,5.98-6.31c2.463,0,5.863,1.173,5.863,6.872v0.586h-8.56c0.094,0.938,0.281,3.049,2.932,3.049
			c0.914,0,1.853-0.469,2.11-1.359H730.183z M726.946,352.157c-0.188-2.017-1.478-2.627-2.533-2.627
			c-1.548,0-2.368,0.985-2.556,2.627H726.946z"/>
		<path fill="#1E1B1B" d="M743.082,359.639h-3.284v-7.575c0-0.915-0.047-2.463-2.134-2.463c-1.454,0-2.58,0.985-2.58,2.885v7.153
			h-3.283v-12.477h3.143v1.829h0.047c0.445-0.751,1.384-2.158,3.753-2.158c2.438,0,4.339,1.431,4.339,4.175V359.639z"/>
		<path fill="#1E1B1B" d="M756.825,359.639h-3.214v-1.571h-0.047c-0.797,1.407-2.251,1.899-3.611,1.899
			c-3.705,0-5.253-3.283-5.253-6.707c0-4.315,2.438-6.427,5.183-6.427c2.11,0,3.096,1.149,3.611,1.947h0.047v-5.98h3.284V359.639z
			 M750.774,357.27c2.087,0,2.908-1.735,2.908-3.588c0-1.993-0.563-4.011-2.814-4.011c-2.088,0-2.791,1.854-2.791,3.823
			C748.077,354.972,748.663,357.27,750.774,357.27z"/>
		<path fill="#1E1B1B" d="M766.112,350.961c-0.141-0.797-0.423-1.642-2.205-1.642s-2.017,0.681-2.017,1.22
			c0,1.97,7.81,0.539,7.81,5.136c0,3.636-3.518,4.292-5.465,4.292c-2.837,0-5.909-0.984-6.004-4.315h3.378
			c0,1.056,0.656,1.83,2.721,1.83c1.688,0,2.087-0.821,2.087-1.29c0-2.088-7.739-0.517-7.739-5.184c0-1.829,1.149-4.175,5.042-4.175
			c2.439,0,5.348,0.61,5.605,4.128H766.112z"/>
		<path fill="#1E1B1B" d="M782.671,359.639h-3.284v-7.575c0-0.915-0.047-2.463-2.134-2.463c-1.454,0-2.58,0.985-2.58,2.885v7.153
			h-3.283V342.8h3.283v5.98h0.047c0.423-1.032,1.829-1.947,3.612-1.947c2.438,0,4.339,1.431,4.339,4.175V359.639z"/>
		<path fill="#1E1B1B" d="M788.393,345.685h-3.283v-3.049h3.283V345.685z M788.393,347.162v12.477h-3.283v-12.477H788.393z"/>
		<path fill="#1E1B1B" d="M793.904,348.968h0.047c0.609-0.985,1.524-2.135,3.729-2.135c2.743,0,5.183,2.111,5.183,6.427
			c0,3.424-1.548,6.707-5.253,6.707c-2.299,0-3.12-1.243-3.519-1.923h-0.047v6.449h-3.283v-17.331h3.143V348.968z M796.789,357.27
			c2.11,0,2.697-2.298,2.697-3.775c0-1.97-0.704-3.823-2.791-3.823c-2.252,0-2.791,2.018-2.791,4.011
			C793.904,355.534,794.702,357.27,796.789,357.27z"/>
		<path fill="#1E1B1B" d="M815.341,359.639h-3.518v-13.86h-5.09V342.8h13.696v2.979h-5.089V359.639z"/>
		<path fill="#1E1B1B" d="M819.656,347.162h3.143v2.157h0.047c0.681-1.267,1.431-2.486,3.424-2.486c0.212,0,0.423,0.023,0.634,0.048
			v3.33c-0.281-0.047-0.634-0.047-0.938-0.047c-2.557,0-3.025,1.595-3.025,2.979v6.496h-3.283V347.162z"/>
		<path fill="#1E1B1B" d="M838.348,355.98c-0.867,3.002-3.354,3.986-5.488,3.986c-3.518,0-6.215-1.688-6.215-6.824
			c0-1.501,0.517-6.31,5.98-6.31c2.463,0,5.863,1.173,5.863,6.872v0.586h-8.56c0.094,0.938,0.281,3.049,2.931,3.049
			c0.915,0,1.854-0.469,2.111-1.359H838.348z M835.111,352.157c-0.188-2.017-1.478-2.627-2.533-2.627
			c-1.548,0-2.368,0.985-2.556,2.627H835.111z"/>
		<path fill="#1E1B1B" d="M850.685,355.98c-0.867,3.002-3.354,3.986-5.487,3.986c-3.519,0-6.216-1.688-6.216-6.824
			c0-1.501,0.517-6.31,5.98-6.31c2.463,0,5.863,1.173,5.863,6.872v0.586h-8.56c0.094,0.938,0.281,3.049,2.932,3.049
			c0.914,0,1.853-0.469,2.11-1.359H850.685z M847.448,352.157c-0.188-2.017-1.478-2.627-2.533-2.627
			c-1.548,0-2.368,0.985-2.556,2.627H847.448z"/>
	</g>
</g>
<path fill="#FAEE3F" d="M825.308,142.63c-0.001,0.006-0.004,0.013-0.007,0.02"/>
<g>
	<g>
		<path fill="#1E1B1B" d="M37.753,833.096c0.023,0.938,0.492,2.72,3.564,2.72c1.665,0,3.519-0.398,3.519-2.181
			c0-1.313-1.267-1.665-3.049-2.087l-1.807-0.423c-2.72-0.633-5.347-1.243-5.347-4.948c0-1.876,1.008-5.184,6.473-5.184
			c5.16,0,6.543,3.378,6.566,5.441h-3.377c-0.094-0.75-0.375-2.533-3.447-2.533c-1.337,0-2.932,0.493-2.932,2.018
			c0,1.313,1.079,1.595,1.782,1.759l4.104,1.009c2.298,0.563,4.409,1.501,4.409,4.526c0,5.065-5.16,5.511-6.638,5.511
			c-6.145,0-7.199-3.541-7.199-5.628H37.753z"/>
		<path fill="#1E1B1B" d="M60.666,833.729c-0.117,1.29-1.126,4.878-5.699,4.878c-4.69,0-5.769-3.588-5.769-6.215
			c0-4.034,1.759-6.919,5.98-6.919c1.97,0,5.206,0.892,5.511,4.785h-3.33c-0.141-0.798-0.609-2.018-2.017-2.018h-0.164
			c-2.064,0-2.604,2.064-2.604,3.612c0,1.36,0.047,4.057,2.532,4.057c1.666,0,2.229-1.595,2.229-2.181H60.666z"/>
		<path fill="#1E1B1B" d="M73.308,838.278h-3.284v-7.575c0-0.915-0.047-2.463-2.134-2.463c-1.454,0-2.58,0.985-2.58,2.885v7.153
			h-3.283v-16.839h3.283v5.98h0.047c0.423-1.032,1.829-1.947,3.612-1.947c2.438,0,4.339,1.431,4.339,4.175V838.278z"/>
		<path fill="#1E1B1B" d="M81.306,838.606c-3.354,0-6.379-2.063-6.379-6.566s3.025-6.567,6.379-6.567s6.379,2.064,6.379,6.567
			S84.659,838.606,81.306,838.606z M81.306,828.24c-2.533,0-3.002,2.205-3.002,3.8s0.469,3.799,3.002,3.799
			c2.532,0,3.002-2.204,3.002-3.799S83.838,828.24,81.306,828.24z"/>
		<path fill="#1E1B1B" d="M94.932,838.606c-3.354,0-6.379-2.063-6.379-6.566s3.025-6.567,6.379-6.567s6.379,2.064,6.379,6.567
			S98.285,838.606,94.932,838.606z M94.932,828.24c-2.533,0-3.002,2.205-3.002,3.8s0.469,3.799,3.002,3.799
			c2.532,0,3.002-2.204,3.002-3.799S97.464,828.24,94.932,828.24z"/>
		<path fill="#1E1B1B" d="M106.282,838.278h-3.283v-16.839h3.283V838.278z"/>
	</g>
</g>
<path fill="#FAEE3F" d="M167.049,621.269c-0.002,0.007-0.004,0.014-0.007,0.021"/>
<g>
	<g>
		<path fill="#1E1B1B" d="M46.33,352.057c-0.281-1.008-0.82-2.907-3.729-2.907c-1.688,0-4.175,1.125-4.175,5.886
			c0,3.025,1.196,5.746,4.175,5.746c1.946,0,3.307-1.102,3.729-3.166h3.519c-0.704,3.659-3.096,6.215-7.317,6.215
			c-4.479,0-7.692-3.025-7.692-8.842c0-5.887,3.4-8.889,7.739-8.889c5.042,0,7.083,3.472,7.271,5.957H46.33z"/>
		<path fill="#1E1B1B" d="M62.842,363.385h-3.284v-7.575c0-0.915-0.047-2.463-2.134-2.463c-1.454,0-2.58,0.985-2.58,2.885v7.153
			h-3.283v-16.839h3.283v5.98h0.047c0.423-1.032,1.829-1.947,3.612-1.947c2.438,0,4.339,1.431,4.339,4.175V363.385z"/>
		<path fill="#1E1B1B" d="M76.444,363.385h-3.144v-1.759h-0.047c-0.75,1.337-2.063,2.087-3.799,2.087
			c-2.463,0-4.245-1.407-4.245-4.597v-8.208h3.283v7.739c0,1.923,1.126,2.298,2.135,2.298c1.078,0,2.532-0.609,2.532-2.838v-7.199
			h3.284V363.385z"/>
		<path fill="#1E1B1B" d="M78.789,350.908h3.143v2.157h0.047c0.681-1.267,1.431-2.486,3.424-2.486c0.212,0,0.423,0.023,0.634,0.048
			v3.33c-0.281-0.047-0.634-0.047-0.938-0.047c-2.557,0-3.025,1.595-3.025,2.979v6.496h-3.283V350.908z"/>
		<path fill="#1E1B1B" d="M97.505,358.835c-0.117,1.29-1.126,4.878-5.699,4.878c-4.69,0-5.769-3.588-5.769-6.215
			c0-4.034,1.759-6.919,5.98-6.919c1.97,0,5.206,0.892,5.511,4.785h-3.33c-0.141-0.798-0.609-2.018-2.017-2.018h-0.164
			c-2.064,0-2.604,2.064-2.604,3.612c0,1.36,0.047,4.057,2.532,4.057c1.666,0,2.229-1.595,2.229-2.181H97.505z"/>
		<path fill="#1E1B1B" d="M110.146,363.385h-3.284v-7.575c0-0.915-0.047-2.463-2.134-2.463c-1.454,0-2.58,0.985-2.58,2.885v7.153
			h-3.283v-16.839h3.283v5.98h0.047c0.423-1.032,1.829-1.947,3.612-1.947c2.438,0,4.339,1.431,4.339,4.175V363.385z"/>
		<path fill="#1E1B1B" d="M121.075,358.202c0.023,0.938,0.492,2.72,3.564,2.72c1.665,0,3.519-0.398,3.519-2.181
			c0-1.313-1.267-1.665-3.049-2.087l-1.807-0.423c-2.72-0.633-5.347-1.243-5.347-4.948c0-1.876,1.008-5.184,6.473-5.184
			c5.16,0,6.543,3.378,6.566,5.441h-3.377c-0.094-0.75-0.375-2.533-3.447-2.533c-1.337,0-2.932,0.493-2.932,2.018
			c0,1.313,1.079,1.595,1.782,1.759l4.104,1.009c2.298,0.563,4.409,1.501,4.409,4.526c0,5.065-5.16,5.511-6.638,5.511
			c-6.145,0-7.199-3.541-7.199-5.628H121.075z"/>
		<path fill="#1E1B1B" d="M136.624,349.431h-3.283v-3.049h3.283V349.431z M136.624,350.908v12.477h-3.283v-12.477H136.624z"/>
		<path fill="#1E1B1B" d="M142.745,350.908h2.041v2.345h-2.041v6.778c0,0.727,0.023,1.008,1.36,1.008
			c0.212,0,0.446-0.023,0.681-0.047v2.486c-0.517,0.023-1.032,0.047-1.548,0.047h-0.422c-2.838,0-3.354-1.079-3.354-2.697v-7.575
			h-1.688v-2.345h1.688v-3.378h3.283V350.908z"/>
		<path fill="#1E1B1B" d="M156.536,359.727c-0.867,3.002-3.354,3.986-5.487,3.986c-3.519,0-6.216-1.688-6.216-6.824
			c0-1.501,0.517-6.31,5.98-6.31c2.463,0,5.863,1.173,5.863,6.872v0.586h-8.56c0.094,0.938,0.281,3.049,2.932,3.049
			c0.914,0,1.853-0.469,2.11-1.359H156.536z M153.3,355.903c-0.188-2.017-1.478-2.627-2.533-2.627c-1.548,0-2.368,0.985-2.556,2.627
			H153.3z"/>
	</g>
</g>
<path fill="#DA3426" d="M145.909,735.453c7.796,0,6.169,3.42,11.054,3.42c12.378,0,37.093-33.909,33.862-63.954
	c-2.591-24.104-15.349-29.363-22.458-29.365c-12.109-0.002-17.549,8.306-22.458,8.306c-4.908,0-10.347-8.308-22.456-8.306
	c-7.11,0.002-19.868,5.261-22.459,29.365c-3.23,30.045,21.484,63.954,33.862,63.954
	C139.742,738.873,138.114,735.453,145.909,735.453z"/>
<path fill="#35A74E" d="M144.792,641.695c3.909-8.035,10.857-22.693,26.06-22.693c15.2,0,19.543,13.735,31.054,21.39
	c-13.302-1.466-43.583,3.517-56.321,9.337C144.792,641.695,144.792,641.695,144.792,641.695z"/>
<polygon fill="#35A74E" points="131.6,626.384 144.792,641.695 145.584,649.729 127.69,631.27 "/>
<polygon fill="#FFFFFF" points="130.365,668.413 135.492,670.083 132.027,681.992 127.833,679.881 "/>
<polygon fill="#FFFFFF" points="139.57,671.223 144.697,672.893 141.233,684.802 137.036,682.691 "/>
<path fill="#F2DEC2" d="M781.275,289.558c5.334-51.493-3.251-60.268-8.311-66.434l6.14-3.13c0,0,9.592,8.376,15.636,1.822
	c4.738-5.134,7.164-14.074-15.751-38.762l4.979-7.352c0,0,14.681,17.977,18.125,17.011c3.446-0.965,8.741-18.148,8.99-21.612v-3.048
	l7.647,5.249l-0.554,2.246c0,0-7.636,47.712,2.158,50.25c6.418,1.665,9.512-5.097,9.512-5.097l13.129,5.454
	c0,0-25.088-6.544-17.75,64.282c-6.504,1.503-13.279,2.298-20.241,2.298c-8.208,0-16.159-1.104-23.712-3.174L781.275,289.558z"/>
<path fill="#79C143" d="M782.448,153.718c0-24.244,21.38-39.104,21.38-39.104s19.88,16.795,17.752,40.947
	c-0.941,9.953-9.321,17.741-19.522,17.741C791.237,173.301,782.463,164.537,782.448,153.718z"/>
<path fill="#79C143" d="M760.93,172.396c-13.475-20.156-3.956-44.391-3.956-44.391s25.862,2.915,37.514,24.176
	c4.747,8.798,2.108,19.931-6.372,25.599C779.117,183.792,766.953,181.382,760.93,172.396z"/>
<path fill="#79C143" d="M752.793,198.362c-22.035-10.116-26.617-35.747-26.617-35.747s23.559-11.059,44.618,0.954
	c8.653,5.008,12.232,15.874,7.978,25.145C774.255,198.545,762.629,202.862,752.793,198.362z"/>
<path fill="#79C143" d="M757.223,224.42c-24.144,2.218-40.896-17.714-40.896-17.714s14.906-21.333,39.152-21.423
	c9.996,0.028,18.518,7.661,19.45,17.819C775.918,213.876,767.993,223.415,757.223,224.42z"/>
<path fill="#79C143" d="M727.813,246.153c0,0,4.779-25.583,26.828-35.666c9.119-4.099,20.029-0.661,25.069,8.207
	c0.146,0.257,0.285,0.517,0.419,0.777L727.813,246.153z"/>
<path fill="#79C143" d="M879.719,250.253c0,0-3.148-25.834-24.516-37.292c-8.841-4.668-19.947-1.927-25.54,6.604
	c-0.16,0.248-0.317,0.498-0.467,0.749L879.719,250.253z"/>
<path fill="#79C143" d="M811.532,150.396c10.945-21.634,36.731-25.245,36.731-25.245s10.158,23.96-2.644,44.552
	c-5.331,8.456-16.326,11.621-25.428,7.018C810.535,171.837,806.664,160.054,811.532,150.396z"/>
<path fill="#79C143" d="M836.166,163.33c20.216-13.384,44.41-3.76,44.41-3.76s-3.029,25.849-24.344,37.407
	c-8.818,4.71-19.938,2.02-25.568-6.485C824.69,181.469,827.155,169.314,836.166,163.33z"/>
<path fill="#79C143" d="M835.832,213.583c-1.167-2.26-1.911-4.788-2.117-7.484c-0.828-10.79,7.24-20.207,18.025-21.051
	c24.173-1.855,40.626,18.326,40.626,18.326s-15.226,21.107-39.469,20.833C845.551,224.076,839.064,219.851,835.832,213.583"/>
<g>
	<g>
		<path fill="#3F3B3C" d="M794.069,171.583c-6.815-3.065-11.563-9.909-11.573-17.865c0-4.883,0.867-9.385,2.252-13.462h0.004
			c3.687,3.133,7.109,7.047,9.783,11.925c3.355,6.222,3.02,13.608-0.463,19.406L794.069,171.583z"/>
		<path fill="#3F3B3C" d="M780.967,180.738c-7.499,1.438-15.472-1.603-19.99-8.342c-3.063-4.581-4.937-9.373-6.006-14.045h0.003
			c5.175,0.65,10.6,2.211,15.869,5.218c6.255,3.62,9.859,10.305,9.767,17.232L780.967,180.738z"/>
		<path fill="#3F3B3C" d="M739.18,188.669c4.806-2.013,10.283-3.364,16.346-3.386c7.498,0.021,14.165,4.32,17.424,10.752
			l0.016,0.034c-5.578,4.289-13.285,5.423-20.125,2.292c-5.482-2.516-9.885-5.994-13.405-9.799L739.18,188.669z"/>
		<path fill="#3F3B3C" d="M739.528,222.203c3.799-4.542,8.749-8.784,15.159-11.716c6.321-2.842,13.503-2.062,18.994,1.638
			l-0.001,0.003c-2.638,6.634-8.817,11.585-16.41,12.292c-6.513,0.599-12.485-0.415-17.739-2.213L739.528,222.203z"/>
		<path fill="#3F3B3C" d="M812.791,170.129c-3.796-5.685-4.506-13.195-1.211-19.733c2.245-4.437,5.111-8.113,8.253-11.159
			l-0.081-0.264c1.564,4.97,2.407,10.548,1.876,16.587c-0.577,6.105-3.954,11.395-8.833,14.573L812.791,170.129z"/>
		<path fill="#3F3B3C" d="M827.472,178.767c0.281-6.028,3.332-11.844,8.742-15.438c4.775-3.161,9.771-5.038,14.618-6.062h0.002
			c-0.99,4.136-2.627,8.351-5.166,12.436c-3.967,6.292-11.07,9.656-18.195,9.067L827.472,178.767z"/>
		<path fill="#3F3B3C" d="M835.879,213.583c3.233,6.269,9.72,10.493,17.066,10.624c4.994,0.057,9.605-0.795,13.779-2.182h0.003
			c-3.074-3.424-6.847-6.582-11.478-9.064c-6.238-3.294-13.607-2.898-19.369,0.62L835.879,213.583z"/>
		<path fill="#3F3B3C" d="M835.818,195.738c2.993-5.898,8.896-10.138,15.969-10.691c6.045-0.464,11.604,0.449,16.547,2.081
			l0.013,0.005c-3.167,3.715-7.124,7.163-12.065,9.843c-6.614,3.532-14.522,2.902-20.439-1.221L835.818,195.738z"/>
	</g>
</g>
</svg>
