<?xml version="1.0" encoding="utf-8"?>
<!-- Generator: Adobe Illustrator 15.0.0, SVG Export Plug-In . SVG Version: 6.00 Build 0)  -->
<!DOCTYPE svg PUBLIC "-//W3C//DTD SVG 1.0//EN" "http://www.w3.org/TR/2001/REC-SVG-20010904/DTD/svg10.dtd">
<svg version="1.0" id="Layer_1" xmlns="http://www.w3.org/2000/svg" xmlns:xlink="http://www.w3.org/1999/xlink" x="0px" y="0px"
	 width="848.082px" height="1247.124px" viewBox="0 0 848.082 1247.124" enable-background="new 0 0 848.082 1247.124"
	 xml:space="preserve">
<rect x="20" fill="#FFF8EE" width="828.083" height="1227.123"/>
<polyline fill="#008AC1" points="0,1247.123 828.082,1247.123 848.082,1227.123 20,1227.123 "/>
<polyline fill="#008AC1" points="20,1227.123 20,0 0,20 0,1247.123 "/>
<path fill="#008AC1" d="M799.023,724.322c0,38.107-30.893,69-69,69H134.022c-38.107,0-69-30.893-69-69v-596
	c0-38.107,30.892-69,69-69h596.001c38.107,0,69,30.893,69,69V724.322z"/>
<circle fill="#FFF8EE" cx="432.022" cy="426.322" r="274.905"/>
<polygon fill="#DA3426" points="252.928,578.322 626.928,578.322 626.928,454.322 452.023,454.322 452.023,348.322 252.928,390.322 
	"/>
<polygon fill="#DA3426" points="626.928,426.322 626.928,304.322 482.928,222.322 482.928,426.322 "/>
<rect x="375.178" y="324.322" fill="#DA3426" width="7.5" height="330"/>
<g id="XMLID_2_">
	<g>
		<path fill="#008AC1" d="M452.929,272.322c0,2.55-0.13,5.07-0.38,7.55l-73.62-7.55l69.32-25.93h0.01
			C451.278,254.462,452.929,263.202,452.929,272.322z"/>
		<path fill="#FAEE3F" d="M378.929,272.322l73.62,7.55c-0.21,2.06-0.5,4.09-0.88,6.09L378.929,272.322z"/>
		<path fill="#008AC1" d="M378.929,272.322l72.74,13.64c-1.92,10.34-5.99,19.92-11.74,28.26L378.929,272.322z"/>
		<path fill="#FAEE3F" d="M448.259,246.392h-0.01l-69.32,25.93l66.92-31.61C446.739,242.563,447.539,244.462,448.259,246.392z"/>
		<path fill="#008AC1" d="M445.849,240.712l-66.92,31.61l38.47-63.22l0.01-0.01C429.708,216.602,439.659,227.602,445.849,240.712z"
			/>
		<path fill="#FAEE3F" d="M378.929,272.322l61,41.9c-4.26,6.19-9.43,11.7-15.33,16.33L378.929,272.322z"/>
		<path fill="#008AC1" d="M378.929,272.322l45.67,58.23c-10.72,8.42-23.82,13.94-38.12,15.39L378.929,272.322z"/>
		<path fill="#FAEE3F" d="M417.409,209.092l-0.01,0.01l-38.47,63.22l19.24-71.47C405.029,202.682,411.489,205.482,417.409,209.092z"
			/>
		<path fill="#008AC1" d="M398.169,200.852l-19.24,71.47l-19.24-71.47c6.13-1.65,12.58-2.53,19.24-2.53
			S392.039,199.202,398.169,200.852z"/>
		<path fill="#FAEE3F" d="M378.929,272.322l7.55,73.62c-2.48,0.25-5,0.38-7.55,0.38V272.322z"/>
		<path fill="#008AC1" d="M378.929,272.322v74c-6.66,0-13.11-0.88-19.24-2.53L378.929,272.322z"/>
		<path fill="#FAEE3F" d="M359.688,200.852l19.24,71.47l-38.47-63.22l-0.01-0.01C346.369,205.482,352.829,202.682,359.688,200.852z"
			/>
		<path fill="#008AC1" d="M340.458,209.102l38.47,63.22l-60.15-43.11c5.79-8.07,13.17-14.93,21.67-20.12L340.458,209.102z"/>
		<path fill="#FAEE3F" d="M378.929,272.322l-19.24,71.47c-7.68-2.06-14.87-5.32-21.34-9.59L378.929,272.322z"/>
		<path fill="#008AC1" d="M378.929,272.322l-40.58,61.88c-5.42-3.55-10.34-7.8-14.65-12.62l0.01-0.01L378.929,272.322z"/>
		<path fill="#FAEE3F" d="M378.929,272.322l-55.22,49.25l-0.01,0.01c-1.3-1.46-2.55-2.97-3.72-4.53L378.929,272.322z"/>
		<path fill="#008AC1" d="M378.929,272.322l-58.95,44.73c-5.76-7.56-10.08-16.27-12.58-25.72L378.929,272.322z"/>
		<path fill="#FAEE3F" d="M378.929,272.322l-71.53,19.01c-1.61-6.07-2.47-12.44-2.47-19.01c0-1.84,0.07-3.67,0.21-5.48
			L378.929,272.322z"/>
		<path fill="#008AC1" d="M378.929,272.322l-73.79-5.48c0.79-10.91,3.95-21.17,8.97-30.25h0.01L378.929,272.322z"/>
		<path fill="#FAEE3F" d="M378.929,272.322l-64.81-35.73h-0.01c1.41-2.56,2.97-5.02,4.67-7.38L378.929,272.322z"/>
	</g>
	<g>
	</g>
</g>
<g>
	<g>
		<path fill="#1E1B1B" d="M97.119,896.625H85.742l18.434-51.7h12.457l18.218,51.7h-11.737l-3.313-10.657h-19.082L97.119,896.625z
			 M103.599,877.039h13.177l-6.408-20.449h-0.145L103.599,877.039z"/>
		<path fill="#1E1B1B" d="M148.238,863.862h0.144c1.872-3.024,4.681-6.553,11.449-6.553c8.425,0,15.913,6.48,15.913,19.729
			c0,10.513-4.752,20.594-16.129,20.594c-7.057,0-9.577-3.816-10.801-5.904h-0.145v19.802h-10.08v-53.213h9.648V863.862z
			 M157.094,889.353c6.48,0,8.281-7.057,8.281-11.593c0-6.049-2.16-11.737-8.569-11.737c-6.912,0-8.568,6.192-8.568,12.313
			C148.238,884.023,150.686,889.353,157.094,889.353z"/>
		<path fill="#1E1B1B" d="M211.67,889.137c0,4.536,1.009,5.544,2.232,5.977v1.512H203.03c-0.576-1.8-0.72-2.376-0.936-4.536
			c-2.305,2.376-5.545,5.544-12.386,5.544c-5.76,0-11.665-3.24-11.665-11.161c0-7.488,4.753-11.305,11.161-12.24l9.073-1.368
			c1.584-0.217,3.528-0.864,3.528-3.024c0-4.249-4.032-4.465-6.625-4.465c-5.04,0-5.904,3.097-6.192,5.329h-9.721
			c1.152-11.737,9.289-13.394,17.138-13.394c5.4,0,15.265,1.656,15.265,11.089V889.137z M201.806,877.976
			c-1.009,0.792-2.665,1.439-6.841,2.088c-3.744,0.648-6.841,1.584-6.841,5.761c0,3.528,2.736,4.608,4.681,4.608
			c4.464,0,9.001-2.881,9.001-7.561V877.976z"/>
		<path fill="#1E1B1B" d="M218.436,858.317h9.648v6.625h0.145c2.088-3.889,4.393-7.633,10.513-7.633
			c0.648,0,1.296,0.072,1.944,0.144v10.226c-0.864-0.145-1.944-0.145-2.88-0.145c-7.85,0-9.289,4.896-9.289,9.146v19.945h-10.081
			V858.317z"/>
		<path fill="#1E1B1B" d="M257.1,858.317h6.265v7.201H257.1v20.81c0,2.232,0.072,3.097,4.177,3.097c0.647,0,1.368-0.072,2.088-0.145
			v7.633c-1.584,0.072-3.168,0.144-4.753,0.144h-1.296c-8.713,0-10.297-3.312-10.297-8.28v-23.258h-5.185v-7.201h5.185v-10.368
			H257.1V858.317z"/>
		<path fill="#1E1B1B" d="M322.408,896.625h-10.081v-23.258c0-5.688-2.521-7.561-5.473-7.561c-5.04,0-6.841,3.312-6.841,7.849v22.97
			h-10.081v-23.042c0-3.24,0-7.776-6.048-7.776c-4.753,0-6.265,3.312-6.265,7.488v23.33h-10.081v-38.308h9.648v5.617h0.145
			c1.296-2.521,4.104-6.625,10.873-6.625c5.544,0,8.064,2.017,10.656,6.12c1.297-1.872,4.104-6.12,10.226-6.12
			c7.488,0,13.321,4.393,13.321,12.817V896.625z"/>
		<path fill="#1E1B1B" d="M362.364,885.392c-2.664,9.217-10.297,12.241-16.849,12.241c-10.802,0-19.082-5.185-19.082-20.953
			c0-4.608,1.584-19.37,18.361-19.37c7.561,0,18.002,3.601,18.002,21.098v1.801h-26.282c0.288,2.88,0.864,9.36,9.001,9.36
			c2.808,0,5.688-1.44,6.48-4.177H362.364z M352.427,873.655c-0.576-6.192-4.536-8.065-7.776-8.065
			c-4.753,0-7.272,3.024-7.849,8.065H352.427z"/>
		<path fill="#1E1B1B" d="M401.964,896.625h-10.081v-23.258c0-2.809-0.144-7.561-6.553-7.561c-4.464,0-7.92,3.024-7.92,8.856v21.962
			H367.33v-38.308h9.648v5.617h0.145c1.368-2.305,4.248-6.625,11.521-6.625c7.488,0,13.321,4.393,13.321,12.817V896.625z"/>
		<path fill="#1E1B1B" d="M420.466,858.317h6.265v7.201h-6.265v20.81c0,2.232,0.072,3.097,4.177,3.097
			c0.647,0,1.368-0.072,2.088-0.145v7.633c-1.584,0.072-3.168,0.144-4.753,0.144h-1.296c-8.713,0-10.297-3.312-10.297-8.28v-23.258
			h-5.185v-7.201h5.185v-10.368h10.081V858.317z"/>
		<path fill="#1E1B1B" d="M452.65,869.982c-0.432-2.448-1.295-5.04-6.768-5.04c-5.473,0-6.192,2.088-6.192,3.744
			c0,6.049,23.978,1.656,23.978,15.77c0,11.161-10.801,13.177-16.778,13.177c-8.713,0-18.146-3.024-18.434-13.249h10.369
			c0,3.24,2.016,5.616,8.353,5.616c5.185,0,6.408-2.52,6.408-3.96c0-6.408-23.761-1.584-23.761-15.913
			c0-5.617,3.528-12.817,15.481-12.817c7.489,0,16.417,1.872,17.209,12.673H452.65z"/>
	</g>
</g>
</svg>
