<?xml version="1.0" encoding="utf-8"?>
<!-- Generator: Adobe Illustrator 15.0.0, SVG Export Plug-In . SVG Version: 6.00 Build 0)  -->
<!DOCTYPE svg PUBLIC "-//W3C//DTD SVG 1.0//EN" "http://www.w3.org/TR/2001/REC-SVG-20010904/DTD/svg10.dtd">
<svg version="1.0" id="Layer_1" xmlns="http://www.w3.org/2000/svg" xmlns:xlink="http://www.w3.org/1999/xlink" x="0px" y="0px"
	 width="848.082px" height="1247.124px" viewBox="0 0 848.082 1247.124" enable-background="new 0 0 848.082 1247.124"
	 xml:space="preserve">
<rect x="20.002" y="-1.424" fill="#FFF8EE" width="828.082" height="1227.123"/>
<polyline fill="#4AB5AE" points="20,1227.124 20,0 0,20 0,1247.124 "/>
<polyline fill="#4AB5AE" points="0,1247.124 828.082,1247.124 848.082,1227.124 20,1227.124 "/>
<path fill="#4AB5AE" d="M799.023,724.323c0,38.107-30.893,69-69,69h-596c-38.107,0-69-30.893-69-69V128.322
	c0-38.107,30.893-69,69-69h596c38.107,0,69,30.893,69,69V724.323z"/>
<path fill="#FFF8EE" d="M721.211,474.218 M132.652,401.919c7.805-9.665,16.152-18.946,25.029-27.821
	c32.047-32.049,69.367-57.209,110.924-74.786c43.029-18.2,88.732-27.428,135.84-27.428s92.811,9.228,135.842,27.428
	c41.557,17.577,78.877,42.737,110.924,74.786c29.244,29.245,52.754,62.881,70,100.12l0.002,57.738
	C682.334,393.611,555.045,291.89,404.445,291.89c-97.396,0-185.043,42.546-245.33,110.029H132.652z"/>
<path fill="#FFF8EE" d="M159.086,401.704c60.289,67.48,147.965,110.248,245.359,110.248c150.596,0,277.881-101.716,316.764-240.055
	l0.002,57.729c-17.246,37.241-40.758,70.877-70,100.118c-32.047,32.048-69.367,57.21-110.924,74.786
	c-43.031,18.201-88.734,27.428-135.842,27.428s-92.811-9.227-135.84-27.428c-41.557-17.576-78.877-42.738-110.924-74.786
	c-8.877-8.877-17.227-18.16-25.033-27.823L159.086,401.704z"/>
<polyline fill="#FFF8EE" points="355.934,390.926 649.77,390.926 649.77,412.926 159.117,412.926 159.117,390.926 355.934,390.926 
	"/>
<polygon fill="#FFF8EE" points="412.582,727.147 396.305,727.147 393.443,113.678 415.443,113.678 "/>
<path fill="#FFF8EE" d="M393.443,102.625 M415.02,257.805c24.365-11.539,41.363-37.259,41.363-67.063
	c0-37.559-26.994-68.634-61.711-73.015 M394.672,117.727c-0.4-0.051-0.803-0.098-1.205-0.141l-0.023-14.961
	c43.746,3.513,77.686,41.692,77.686,88.116c0,38.36-23.588,69.094-56.463,81.289l0.068-14.106c0.096-0.044,0.191-0.074,0.285-0.119"
	/>
<path fill="#FFF8EE" d="M239.279,391.998c-11.244-8.617-21.375-20.049-21.141-42.135l10.949-7.232
	c-0.49,31.209,31.514,45.369,38.842,49.367H239.279z"/>
<path fill="#FFF8EE" d="M239.279,412.926c-11.244,8.617-21.375,20.051-21.141,42.136l10.949,7.232
	c-0.49-31.208,31.514-45.37,38.842-49.368H239.279z"/>
<path fill="#FFF8EE" d="M396.504,596.603c-24.135,0.004-79.473-11.646-79.473-11.646v32.602c0,0,61.627-9.174,79.473-9.061"/>
<path fill="#FFF8EE" d="M411.244,596.603c24.135,0.004,79.473-11.646,79.473-11.646v32.602c0,0-61.627-9.174-79.473-9.061"/>
<g>
	<g>
		<path fill="#1E1B1B" d="M122.755,885.432c-0.864-3.096-2.521-8.928-11.449-8.928c-5.184,0-12.816,3.455-12.816,18.074
			c0,9.287,3.672,17.641,12.816,17.641c5.977,0,10.153-3.385,11.449-9.721h10.801c-2.16,11.232-9.505,19.082-22.466,19.082
			c-13.753,0-23.618-9.289-23.618-27.146c0-18.074,10.441-27.291,23.763-27.291c15.481,0,21.745,10.656,22.321,18.289H122.755z"/>
		<path fill="#1E1B1B" d="M173.442,920.211h-10.081v-23.258c0-2.809-0.144-7.561-6.553-7.561c-4.464,0-7.92,3.025-7.92,8.857v21.961
			h-10.081v-51.699h10.081v18.361h0.144c1.296-3.168,5.616-5.977,11.089-5.977c7.488,0,13.321,4.393,13.321,12.816V920.211z"/>
		<path fill="#1E1B1B" d="M215.201,920.211h-9.648v-5.4h-0.145c-2.304,4.105-6.336,6.408-11.665,6.408
			c-7.561,0-13.033-4.32-13.033-14.113v-25.201h10.081v23.762c0,5.904,3.457,7.057,6.553,7.057c3.313,0,7.776-1.871,7.776-8.713
			v-22.105h10.081V920.211z"/>
		<path fill="#1E1B1B" d="M222.397,881.904h9.648v6.625h0.145c2.088-3.889,4.393-7.633,10.513-7.633
			c0.648,0,1.296,0.072,1.944,0.143v10.227c-0.864-0.145-1.944-0.145-2.88-0.145c-7.85,0-9.289,4.896-9.289,9.145v19.945h-10.081
			V881.904z"/>
		<path fill="#1E1B1B" d="M279.857,906.242c-0.36,3.961-3.456,14.977-17.497,14.977c-14.401,0-17.714-11.016-17.714-19.08
			c0-12.387,5.4-21.242,18.361-21.242c6.049,0,15.985,2.736,16.922,14.689h-10.225c-0.433-2.449-1.873-6.193-6.193-6.193h-0.504
			c-6.336,0-7.992,6.336-7.992,11.09c0,4.176,0.144,12.457,7.776,12.457c5.112,0,6.841-4.896,6.841-6.697H279.857z"/>
		<path fill="#1E1B1B" d="M318.666,920.211h-10.081v-23.258c0-2.809-0.144-7.561-6.553-7.561c-4.464,0-7.92,3.025-7.92,8.857v21.961
			h-10.081v-51.699h10.081v18.361h0.144c1.296-3.168,5.616-5.977,11.089-5.977c7.488,0,13.321,4.393,13.321,12.816V920.211z"/>
		<path fill="#1E1B1B" d="M352.214,904.299c0.072,2.879,1.513,8.352,10.945,8.352c5.112,0,10.801-1.225,10.801-6.695
			c0-4.033-3.888-5.113-9.36-6.41l-5.545-1.295c-8.353-1.945-16.417-3.816-16.417-15.193c0-5.762,3.096-15.914,19.873-15.914
			c15.842,0,20.09,10.369,20.162,16.705h-10.369c-0.288-2.303-1.151-7.775-10.585-7.775c-4.104,0-9,1.512-9,6.191
			c0,4.033,3.312,4.896,5.472,5.4l12.602,3.098c7.057,1.727,13.537,4.607,13.537,13.896c0,15.553-15.842,16.922-20.378,16.922
			c-18.865,0-22.105-10.873-22.105-17.281H352.214z"/>
		<path fill="#1E1B1B" d="M399.95,877.367h-10.08v-9.359h10.08V877.367z M399.95,881.904v38.307h-10.08v-38.307H399.95z"/>
		<path fill="#1E1B1B" d="M418.742,881.904h6.265v7.201h-6.265v20.809c0,2.232,0.072,3.098,4.177,3.098
			c0.647,0,1.368-0.072,2.088-0.145v7.633c-1.584,0.072-3.168,0.143-4.753,0.143h-1.296c-8.713,0-10.297-3.311-10.297-8.279v-23.258
			h-5.185v-7.201h5.185v-10.369h10.081V881.904z"/>
		<path fill="#1E1B1B" d="M461.079,908.979c-2.664,9.217-10.297,12.24-16.849,12.24c-10.802,0-19.082-5.184-19.082-20.953
			c0-4.607,1.584-19.369,18.361-19.369c7.561,0,18.002,3.6,18.002,21.098v1.801h-26.282c0.288,2.879,0.864,9.359,9.001,9.359
			c2.808,0,5.688-1.439,6.48-4.176H461.079z M451.143,897.242c-0.576-6.193-4.536-8.066-7.776-8.066
			c-4.753,0-7.272,3.025-7.849,8.066H451.143z"/>
	</g>
</g>
</svg>
