<?xml version="1.0" encoding="utf-8"?>
<!-- Generator: Adobe Illustrator 15.0.0, SVG Export Plug-In . SVG Version: 6.00 Build 0)  -->
<!DOCTYPE svg PUBLIC "-//W3C//DTD SVG 1.0//EN" "http://www.w3.org/TR/2001/REC-SVG-20010904/DTD/svg10.dtd">
<svg version="1.0" id="Layer_1" xmlns="http://www.w3.org/2000/svg" xmlns:xlink="http://www.w3.org/1999/xlink" x="0px" y="0px"
	 width="848.082px" height="1247.124px" viewBox="0 0 848.082 1247.124" enable-background="new 0 0 848.082 1247.124"
	 xml:space="preserve">
<rect x="19.999" y="0.001" fill="#FFFFFF" width="828.083" height="1227.123"/>
<polyline fill="#3F3B3C" points="19.999,1227.124 19.999,0.001 -0.001,20.001 -0.001,1247.124 "/>
<polyline fill="#3F3B3C" points="-0.001,1247.124 828.081,1247.124 848.081,1227.124 19.999,1227.124 "/>
<rect x="20" y="0.001" fill="#FFF8EE" width="828.083" height="1227.123"/>
<path fill="#3F3B3C" d="M799.022,724.323c0,38.107-30.893,69-69,69H134.021c-38.107,0-69-30.893-69-69v-596
	c0-38.107,30.892-69,69-69h596.001c38.107,0,69,30.893,69,69V724.323z"/>
<circle fill="#F2EBE1" cx="432.021" cy="426.323" r="274.905"/>
<polygon fill="#C3A98A" points="276.136,579.081 291.11,579.96 327.735,262.931 311.265,261.965 "/>
<polygon fill="#383838" points="327.761,580.321 365.259,240.896 377.259,240.896 344.259,580.321 "/>
<polygon fill="#383838" points="461.591,580.321 499.089,240.896 511.089,240.896 478.089,580.321 "/>
<polygon fill="#383838" points="543.304,573.729 508.548,234.013 520.28,231.488 559.433,570.258 "/>
<polygon fill="#383838" points="577.413,583.882 572.903,242.421 584.812,240.946 593.786,581.853 "/>
<polygon fill="#C3A98A" points="455.581,573.729 420.825,234.013 432.558,231.488 471.71,570.258 "/>
<polygon fill="#C3A98A" points="400.997,582.113 391.134,240.767 403.017,239.104 417.335,579.829 "/>
<polygon fill="#735F47" points="270.763,580.321 285.763,580.321 303.761,261.691 287.263,261.691 "/>
<polygon fill="#383838" points="318.462,580.904 333.446,580.226 337.007,261.108 320.526,261.854 "/>
<polygon fill="#735F47" points="348.411,568.417 363.37,567.324 358.104,248.23 341.649,249.433 "/>
<polygon fill="#735F47" points="471.38,568.417 486.339,567.324 481.073,248.23 464.618,249.433 "/>
<polygon fill="#735F47" points="512.929,593.761 527.919,594.262 556.538,276.41 540.048,275.859 "/>
<polygon fill="#735F47" points="450.833,585.063 465.8,584.073 462.729,264.95 446.269,266.039 "/>
<polygon fill="#735F47" points="601.476,569.139 616.386,567.512 599.704,248.811 583.302,250.601 "/>
<polygon fill="#C3A98A" points="485.317,580.321 522.815,240.896 534.815,240.896 501.815,580.321 "/>
<polygon fill="#C3A98A" points="558.554,582.113 548.69,240.767 560.573,239.104 574.892,579.829 "/>
<polygon fill="#735F47" points="267.526,582.113 257.663,240.767 269.546,239.104 283.864,579.829 "/>
<polygon fill="#C3A98A" points="604.093,582.113 581.331,241.383 593.144,239.273 620.333,579.213 "/>
<polygon fill="#C3A98A" points="366.493,581.806 371.628,240.355 383.573,239.217 382.917,580.241 "/>
<polygon fill="#735F47" points="606.608,580.948 621.589,580.219 624.069,261.091 607.591,261.894 "/>
<polygon fill="#383838" points="241.201,590.948 256.183,590.219 258.663,271.091 242.184,271.894 "/>
<polygon fill="#735F47" points="382.403,590.948 397.384,590.219 399.864,271.091 383.386,271.894 "/>
<polygon fill="#735F47" points="405.505,580.948 420.485,580.219 422.966,261.091 406.487,261.894 "/>
<polygon fill="#C3A98A" points="298.927,590.323 311.927,590.323 270.763,246.323 255.927,246.323 "/>
<polygon fill="#C3A98A" points="475.479,580.745 488.354,582.543 495.157,236.155 480.464,234.104 "/>
<polygon fill="#383838" points="511.089,560.745 523.964,562.543 530.767,216.155 516.073,214.104 "/>
<g>
	<g>
		<path fill="#1E1B1B" d="M100.574,910.625H89.773v-51.699h36.795v9.145h-25.994v11.664h22.754v9.145h-22.754V910.625z"/>
		<path fill="#1E1B1B" d="M146.006,911.633c-10.297,0-19.586-6.336-19.586-20.16c0-13.826,9.289-20.162,19.586-20.162
			s19.585,6.336,19.585,20.162C165.591,905.297,156.303,911.633,146.006,911.633z M146.006,879.807
			c-7.777,0-9.217,6.77-9.217,11.666s1.439,11.664,9.217,11.664c7.776,0,9.217-6.768,9.217-11.664S153.783,879.807,146.006,879.807z
			"/>
		<path fill="#1E1B1B" d="M170.412,872.318h9.648v6.625h0.145c2.088-3.889,4.393-7.633,10.513-7.633
			c0.648,0,1.296,0.072,1.944,0.143v10.227c-0.864-0.145-1.944-0.145-2.88-0.145c-7.85,0-9.289,4.896-9.289,9.145v19.945h-10.081
			V872.318z"/>
		<path fill="#1E1B1B" d="M227.798,899.393c-2.664,9.217-10.297,12.24-16.849,12.24c-10.802,0-19.082-5.184-19.082-20.953
			c0-4.607,1.584-19.369,18.361-19.369c7.561,0,18.002,3.6,18.002,21.098v1.801h-26.282c0.288,2.879,0.864,9.359,9.001,9.359
			c2.808,0,5.688-1.439,6.48-4.176H227.798z M217.862,887.656c-0.576-6.193-4.536-8.066-7.776-8.066
			c-4.753,0-7.272,3.025-7.849,8.066H217.862z"/>
		<path fill="#1E1B1B" d="M252.278,910.625h-10.585l-13.753-38.307h11.232l7.921,28.227h0.144l8.137-28.227h10.729L252.278,910.625z
			"/>
		<path fill="#1E1B1B" d="M301.023,899.393c-2.664,9.217-10.297,12.24-16.849,12.24c-10.802,0-19.082-5.184-19.082-20.953
			c0-4.607,1.584-19.369,18.361-19.369c7.561,0,18.002,3.6,18.002,21.098v1.801h-26.282c0.288,2.879,0.864,9.359,9.001,9.359
			c2.808,0,5.688-1.439,6.48-4.176H301.023z M291.086,887.656c-0.576-6.193-4.536-8.066-7.776-8.066
			c-4.753,0-7.272,3.025-7.849,8.066H291.086z"/>
		<path fill="#1E1B1B" d="M305.917,872.318h9.648v6.625h0.145c2.088-3.889,4.393-7.633,10.513-7.633
			c0.648,0,1.296,0.072,1.944,0.143v10.227c-0.864-0.145-1.944-0.145-2.88-0.145c-7.849,0-9.289,4.896-9.289,9.145v19.945h-10.081
			V872.318z"/>
		<path fill="#1E1B1B" d="M340.405,858.926h11.521c6.625,28.297,7.272,31.898,8.209,37.803h0.144
			c0.937-5.4,1.729-10.656,7.201-37.803h11.449c6.048,28.369,6.552,31.105,7.704,37.803h0.145c0.864-4.896,1.728-9.361,8.425-37.803
			h10.944l-14.545,51.699h-10.369c-5.328-25.346-6.265-30.387-7.992-40.322h-0.145c-1.584,9.936-2.448,13.68-7.992,40.322h-10.081
			L340.405,858.926z"/>
		<path fill="#1E1B1B" d="M422.774,911.633c-10.297,0-19.586-6.336-19.586-20.16c0-13.826,9.289-20.162,19.586-20.162
			s19.585,6.336,19.585,20.162C442.359,905.297,433.071,911.633,422.774,911.633z M422.774,879.807
			c-7.777,0-9.217,6.77-9.217,11.666s1.439,11.664,9.217,11.664c7.776,0,9.217-6.768,9.217-11.664S430.55,879.807,422.774,879.807z"
			/>
		<path fill="#1E1B1B" d="M464.605,911.633c-10.297,0-19.586-6.336-19.586-20.16c0-13.826,9.29-20.162,19.586-20.162
			s19.584,6.336,19.584,20.162C484.189,905.297,474.902,911.633,464.605,911.633z M464.605,879.807
			c-7.777,0-9.217,6.77-9.217,11.666s1.439,11.664,9.217,11.664c7.775,0,9.217-6.768,9.217-11.664S472.381,879.807,464.605,879.807z
			"/>
		<path fill="#1E1B1B" d="M524.078,910.625h-9.865v-4.824h-0.143c-2.449,4.32-6.914,5.832-11.09,5.832
			c-11.377,0-16.129-10.08-16.129-20.594c0-13.248,7.488-19.729,15.912-19.729c6.48,0,9.506,3.527,11.09,5.977h0.145v-18.361h10.08
			V910.625z M505.5,903.354c6.41,0,8.93-5.33,8.93-11.018c0-6.121-1.729-12.313-8.641-12.313c-6.408,0-8.568,5.688-8.568,11.736
			C497.221,896.297,499.02,903.354,505.5,903.354z"/>
		<path fill="#1E1B1B" d="M552.588,883.982c-0.432-2.447-1.295-5.039-6.768-5.039s-6.193,2.088-6.193,3.744
			c0,6.049,23.979,1.656,23.979,15.77c0,11.16-10.801,13.176-16.777,13.176c-8.713,0-18.146-3.023-18.434-13.248h10.369
			c0,3.24,2.016,5.615,8.352,5.615c5.186,0,6.408-2.52,6.408-3.959c0-6.408-23.762-1.584-23.762-15.914
			c0-5.617,3.529-12.816,15.482-12.816c7.488,0,16.416,1.871,17.209,12.672H552.588z"/>
	</g>
</g>
<path fill="#FAEE3F" d="M494.409,240.421c-0.008,0.021-0.014,0.041-0.021,0.062"/>
</svg>
