<?xml version="1.0" encoding="utf-8"?>
<!-- Generator: Adobe Illustrator 15.0.0, SVG Export Plug-In . SVG Version: 6.00 Build 0)  -->
<!DOCTYPE svg PUBLIC "-//W3C//DTD SVG 1.0//EN" "http://www.w3.org/TR/2001/REC-SVG-20010904/DTD/svg10.dtd">
<svg version="1.0" id="Layer_1" xmlns="http://www.w3.org/2000/svg" xmlns:xlink="http://www.w3.org/1999/xlink" x="0px" y="0px"
	 width="848.082px" height="1247.124px" viewBox="0 0 848.082 1247.124" enable-background="new 0 0 848.082 1247.124"
	 xml:space="preserve">
<rect x="20" y="0" fill="#FFF8EE" width="828.082" height="1227.123"/>
<polyline fill="#E85E3A" points="0,1247.123 828.082,1247.123 848.082,1227.123 20,1227.123 "/>
<polyline fill="#E85E3A" points="20,1227.123 20,0 0,20 0,1247.123 "/>
<path fill="#E85E3A" d="M799.023,724.322c0,38.107-30.893,69-69,69h-596c-38.107,0-69-30.893-69-69v-596c0-38.107,30.893-69,69-69
	h596c38.107,0,69,30.893,69,69V724.322z"/>
<circle fill="#008AC1" cx="432.023" cy="426.323" r="274.905"/>
<g>
	<g>
		<path fill="#1E1B1B" d="M100.575,906.625H89.774v-51.7h36.795v9.145h-25.994v11.665h22.754v9.145h-22.754V906.625z"/>
		<path fill="#1E1B1B" d="M126.782,868.317h9.648v6.625h0.145c2.088-3.889,4.393-7.633,10.513-7.633
			c0.648,0,1.296,0.072,1.944,0.144v10.226c-0.864-0.145-1.944-0.145-2.88-0.145c-7.85,0-9.289,4.896-9.289,9.146v19.945h-10.081
			V868.317z"/>
		<path fill="#1E1B1B" d="M161.99,863.781h-10.08v-9.36h10.08V863.781z M161.99,868.317v38.308h-10.08v-38.308H161.99z"/>
		<path fill="#1E1B1B" d="M202.384,895.392c-2.664,9.217-10.297,12.241-16.849,12.241c-10.802,0-19.082-5.185-19.082-20.953
			c0-4.608,1.584-19.37,18.361-19.37c7.561,0,18.002,3.601,18.002,21.098v1.801h-26.282c0.288,2.88,0.864,9.36,9.001,9.36
			c2.808,0,5.688-1.44,6.48-4.177H202.384z M192.447,883.655c-0.576-6.192-4.536-8.065-7.776-8.065
			c-4.753,0-7.272,3.024-7.849,8.065H192.447z"/>
		<path fill="#1E1B1B" d="M241.984,906.625h-10.081v-23.258c0-2.809-0.144-7.561-6.553-7.561c-4.464,0-7.92,3.024-7.92,8.856v21.962
			H207.35v-38.308h9.648v5.617h0.145c1.368-2.305,4.248-6.625,11.521-6.625c7.488,0,13.321,4.393,13.321,12.817V906.625z"/>
		<path fill="#1E1B1B" d="M284.177,906.625h-9.865v-4.824h-0.144c-2.448,4.32-6.913,5.832-11.09,5.832
			c-11.377,0-16.129-10.081-16.129-20.594c0-13.249,7.488-19.729,15.913-19.729c6.48,0,9.505,3.528,11.089,5.977h0.145v-18.361
			h10.081V906.625z M265.599,899.353c6.409,0,8.929-5.329,8.929-11.018c0-6.12-1.728-12.313-8.641-12.313
			c-6.408,0-8.568,5.688-8.568,11.737C257.318,892.296,259.118,899.353,265.599,899.353z"/>
		<path fill="#1E1B1B" d="M312.687,879.982c-0.433-2.448-1.296-5.04-6.769-5.04s-6.192,2.088-6.192,3.744
			c0,6.049,23.978,1.656,23.978,15.77c0,11.161-10.801,13.177-16.777,13.177c-8.713,0-18.146-3.024-18.434-13.249h10.369
			c0,3.24,2.016,5.616,8.353,5.616c5.185,0,6.408-2.52,6.408-3.96c0-6.408-23.762-1.584-23.762-15.913
			c0-5.617,3.528-12.817,15.481-12.817c7.488,0,16.417,1.872,17.209,12.673H312.687z"/>
		<path fill="#1E1B1B" d="M363.52,906.625h-10.081v-23.258c0-2.809-0.144-7.561-6.553-7.561c-4.464,0-7.92,3.024-7.92,8.856v21.962
			h-10.081v-51.7h10.081v18.361h0.144c1.296-3.168,5.616-5.977,11.089-5.977c7.488,0,13.321,4.393,13.321,12.817V906.625z"/>
		<path fill="#1E1B1B" d="M381.084,863.781h-10.08v-9.36h10.08V863.781z M381.084,868.317v38.308h-10.08v-38.308H381.084z"/>
		<path fill="#1E1B1B" d="M398.005,873.862h0.144c1.873-3.024,4.681-6.553,11.449-6.553c8.425,0,15.913,6.48,15.913,19.729
			c0,10.513-4.752,20.594-16.129,20.594c-7.057,0-9.577-3.816-10.801-5.904h-0.145v19.802h-10.08v-53.213h9.648V873.862z
			 M406.861,899.353c6.48,0,8.281-7.057,8.281-11.593c0-6.049-2.16-11.737-8.569-11.737c-6.912,0-8.568,6.192-8.568,12.313
			C398.005,894.023,400.453,899.353,406.861,899.353z"/>
		<path fill="#1E1B1B" d="M463.814,906.625h-10.801v-42.556h-15.626v-9.145h42.052v9.145h-15.625V906.625z"/>
		<path fill="#1E1B1B" d="M477.061,868.317h9.648v6.625h0.145c2.088-3.889,4.393-7.633,10.513-7.633
			c0.648,0,1.296,0.072,1.944,0.144v10.226c-0.864-0.145-1.944-0.145-2.88-0.145c-7.849,0-9.289,4.896-9.289,9.146v19.945h-10.081
			V868.317z"/>
		<path fill="#1E1B1B" d="M534.447,895.392c-2.664,9.217-10.297,12.241-16.85,12.241c-10.801,0-19.081-5.185-19.081-20.953
			c0-4.608,1.584-19.37,18.361-19.37c7.561,0,18.002,3.601,18.002,21.098v1.801h-26.282c0.288,2.88,0.864,9.36,9,9.36
			c2.809,0,5.689-1.44,6.481-4.177H534.447z M524.511,883.655c-0.576-6.192-4.536-8.065-7.776-8.065
			c-4.753,0-7.272,3.024-7.849,8.065H524.511z"/>
		<path fill="#1E1B1B" d="M572.319,895.392c-2.664,9.217-10.297,12.241-16.849,12.241c-10.802,0-19.082-5.185-19.082-20.953
			c0-4.608,1.584-19.37,18.361-19.37c7.561,0,18.002,3.601,18.002,21.098v1.801H546.47c0.288,2.88,0.864,9.36,9.001,9.36
			c2.808,0,5.688-1.44,6.48-4.177H572.319z M562.383,883.655c-0.576-6.192-4.536-8.065-7.776-8.065
			c-4.753,0-7.272,3.024-7.849,8.065H562.383z"/>
	</g>
</g>
<path fill="#FAEE3F" d="M494.41,240.42c-0.007,0.021-0.014,0.041-0.021,0.062"/>
<path fill="#F2DEC2" d="M359.231,691.48c16.379-158.08-9.976-185.018-25.512-203.945l18.849-9.613c0,0,29.445,25.715,48.003,5.596
	c14.542-15.766,21.991-43.209-48.355-119.001l15.284-22.565c0,0,45.068,55.189,55.646,52.223
	c10.576-2.967,26.833-55.718,27.597-66.35v-9.359l23.479,16.112l-1.699,6.895c0,0-23.441,146.474,6.625,154.267
	c19.703,5.108,29.2-15.65,29.2-15.65l40.306,16.746c0,0-77.02-20.092-54.49,197.341c-19.968,4.613-40.769,7.053-62.139,7.053
	c-25.201,0-49.61-3.391-72.796-9.742L359.231,691.48z"/>
<path fill="#79C143" d="M362.834,274.461c0-74.431,65.635-120.051,65.635-120.051s61.031,51.561,54.499,125.704
	c-2.892,30.557-28.62,54.463-59.933,54.463C389.815,334.578,362.88,307.671,362.834,274.461z"/>
<path fill="#79C143" d="M296.771,331.802c-41.36-61.882-12.143-136.281-12.143-136.281s79.393,8.95,115.162,74.224
	c14.577,27.011,6.471,61.184-19.563,78.583C352.609,366.788,315.264,359.386,296.771,331.802z"/>
<path fill="#79C143" d="M271.791,411.516c-67.642-31.059-81.712-109.741-81.712-109.741s72.324-33.95,136.979,2.925
	c26.563,15.377,37.552,48.733,24.485,77.191C337.682,412.081,301.99,425.331,271.791,411.516z"/>
<path fill="#79C143" d="M285.391,491.511c-74.119,6.809-125.549-54.38-125.549-54.38s45.761-65.491,120.191-65.768
	c30.693,0.084,56.852,23.52,59.716,54.701C342.787,459.145,318.456,488.428,285.391,491.511z"/>
<path fill="#79C143" d="M195.104,558.229c0,0,14.67-78.537,82.359-109.492c27.995-12.584,61.49-2.027,76.962,25.197
	c0.449,0.789,0.878,1.585,1.287,2.385L195.104,558.229z"/>
<path fill="#79C143" d="M661.451,570.817c0,0-9.669-79.31-75.265-114.487c-27.142-14.329-61.238-5.913-78.403,20.275
	c-0.496,0.76-0.976,1.527-1.435,2.3L661.451,570.817z"/>
<path fill="#79C143" d="M452.122,264.26c33.599-66.416,112.759-77.496,112.759-77.496s31.188,73.557-8.111,136.77
	c-16.372,25.962-50.123,35.678-78.063,21.543C449.063,330.083,437.174,293.915,452.122,264.26z"/>
<path fill="#79C143" d="M527.744,303.969c62.063-41.088,136.334-11.544,136.334-11.544s-9.299,79.352-74.728,114.835
	c-27.074,14.459-61.212,6.201-78.497-19.908C492.514,359.654,500.08,322.342,527.744,303.969z"/>
<path fill="#79C143" d="M526.717,458.243c-3.58-6.942-5.861-14.7-6.497-22.978c-2.542-33.123,22.226-62.037,55.335-64.625
	c74.212-5.693,124.719,56.259,124.719,56.259s-46.737,64.797-121.164,63.957C556.558,490.455,536.644,477.483,526.717,458.243"/>
<g>
	<g>
		<path fill="#3F3B3C" d="M398.509,329.305c-20.921-9.411-35.495-30.423-35.529-54.844c0-14.99,2.662-28.813,6.915-41.328
			l0.012-0.001c11.316,9.619,21.823,21.633,30.031,36.612c10.306,19.097,9.273,41.772-1.417,59.571L398.509,329.305z"/>
		<path fill="#3F3B3C" d="M358.282,357.411c-23.021,4.416-47.494-4.922-61.364-25.608c-9.402-14.066-15.157-28.778-18.438-43.118
			l0.01-0.004c15.883,2,32.538,6.793,48.713,16.02c19.206,11.117,30.27,31.635,29.986,52.904L358.282,357.411z"/>
		<path fill="#3F3B3C" d="M230,381.756c14.756-6.178,31.572-10.322,50.18-10.393c23.021,0.063,43.489,13.262,53.493,33.011
			l0.047,0.102c-17.124,13.166-40.782,16.647-61.783,7.04c-16.831-7.729-30.345-18.404-41.15-30.084L230,381.756z"/>
		<path fill="#3F3B3C" d="M231.072,484.706c11.659-13.945,26.857-26.969,46.538-35.969c19.405-8.724,41.454-6.327,58.311,5.033
			l-0.005,0.006c-8.098,20.367-27.068,35.563-50.379,37.735c-19.99,1.838-38.331-1.273-54.458-6.796L231.072,484.706z"/>
		<path fill="#3F3B3C" d="M455.985,324.843c-11.656-17.454-13.833-40.51-3.717-60.583c6.889-13.616,15.69-24.906,25.335-34.253
			l-0.249-0.813c4.803,15.26,7.393,32.385,5.76,50.921c-1.774,18.743-12.14,34.984-27.117,44.74L455.985,324.843z"/>
		<path fill="#3F3B3C" d="M501.054,351.359c0.864-18.503,10.229-36.359,26.837-47.39c14.657-9.703,29.996-15.469,44.876-18.611
			l0.008,0.001c-3.043,12.695-8.064,25.638-15.858,38.175c-12.182,19.317-33.986,29.641-55.857,27.836L501.054,351.359z"/>
		<path fill="#3F3B3C" d="M526.863,458.243c9.926,19.24,29.84,32.212,52.393,32.613c15.332,0.174,29.487-2.439,42.301-6.697
			l0.008-0.002c-9.432-10.511-21.019-20.204-35.231-27.827c-19.155-10.113-41.776-8.896-59.463,1.903L526.863,458.243z"/>
		<path fill="#3F3B3C" d="M526.677,403.458c9.188-18.104,27.312-31.12,49.024-32.817c18.553-1.424,35.624,1.38,50.795,6.387
			l0.04,0.017c-9.719,11.406-21.871,21.99-37.039,30.217c-20.306,10.844-44.585,8.909-62.747-3.749L526.677,403.458z"/>
	</g>
</g>
</svg>
