<?xml version="1.0" encoding="utf-8"?>
<!-- Generator: Adobe Illustrator 15.0.0, SVG Export Plug-In . SVG Version: 6.00 Build 0)  -->
<!DOCTYPE svg PUBLIC "-//W3C//DTD SVG 1.0//EN" "http://www.w3.org/TR/2001/REC-SVG-20010904/DTD/svg10.dtd">
<svg version="1.0" id="Layer_1" xmlns="http://www.w3.org/2000/svg" xmlns:xlink="http://www.w3.org/1999/xlink" x="0px" y="0px"
	 width="848.082px" height="1247.124px" viewBox="0 0 848.082 1247.124" enable-background="new 0 0 848.082 1247.124"
	 xml:space="preserve">
<rect x="20" fill="#FFF8EE" width="828.083" height="1227.123"/>
<polyline fill="#FFD021" points="0,1247.123 828.082,1247.123 848.082,1227.123 20,1227.123 "/>
<polyline fill="#FFD021" points="20,1227.123 20,0 0,20 0,1247.123 "/>
<path fill="#FFD021" d="M799.023,724.322c0,38.107-30.893,69-69,69H134.022c-38.107,0-69-30.893-69-69v-596
	c0-38.107,30.892-69,69-69h596.001c38.107,0,69,30.893,69,69V724.322z"/>
<circle fill="#3F3B3C" cx="432.022" cy="426.322" r="274.905"/>
<g>
	<g>
		<path fill="#1E1B1B" d="M100.575,910.625H89.774v-51.7h23.618c10.009,0,16.057,6.408,16.057,16.562
			c0,4.68-2.592,16.489-16.489,16.489h-12.385V910.625z M110.583,883.047c8.064,0,8.064-5.761,8.064-8.065
			c0-5.04-2.808-7.128-9.505-7.128h-8.568v15.193H110.583z"/>
		<path fill="#1E1B1B" d="M165.591,899.392c-2.664,9.217-10.297,12.241-16.85,12.241c-10.801,0-19.081-5.185-19.081-20.953
			c0-4.608,1.584-19.37,18.361-19.37c7.561,0,18.002,3.601,18.002,21.098v1.801h-26.282c0.288,2.88,0.864,9.36,9,9.36
			c2.809,0,5.689-1.44,6.481-4.177H165.591z M155.655,887.655c-0.576-6.192-4.536-8.065-7.776-8.065
			c-4.753,0-7.272,3.024-7.849,8.065H155.655z"/>
		<path fill="#1E1B1B" d="M205.552,910.625h-9.865v-4.824h-0.144c-2.448,4.32-6.913,5.832-11.09,5.832
			c-11.377,0-16.129-10.081-16.129-20.594c0-13.249,7.488-19.729,15.913-19.729c6.48,0,9.505,3.528,11.089,5.977h0.145v-18.361
			h10.081V910.625z M186.974,903.353c6.409,0,8.929-5.329,8.929-11.018c0-6.12-1.728-12.313-8.641-12.313
			c-6.408,0-8.568,5.688-8.568,11.737C178.694,896.296,180.494,903.353,186.974,903.353z"/>
		<path fill="#1E1B1B" d="M245.295,899.392c-2.664,9.217-10.297,12.241-16.849,12.241c-10.802,0-19.082-5.185-19.082-20.953
			c0-4.608,1.584-19.37,18.361-19.37c7.561,0,18.002,3.601,18.002,21.098v1.801h-26.282c0.288,2.88,0.864,9.36,9.001,9.36
			c2.808,0,5.688-1.44,6.48-4.177H245.295z M235.359,887.655c-0.576-6.192-4.536-8.065-7.776-8.065
			c-4.753,0-7.272,3.024-7.849,8.065H235.359z"/>
		<path fill="#1E1B1B" d="M271.935,883.982c-0.433-2.448-1.296-5.04-6.769-5.04s-6.192,2.088-6.192,3.744
			c0,6.049,23.978,1.656,23.978,15.77c0,11.161-10.801,13.177-16.777,13.177c-8.713,0-18.146-3.024-18.434-13.249h10.369
			c0,3.24,2.016,5.616,8.353,5.616c5.185,0,6.408-2.52,6.408-3.96c0-6.408-23.762-1.584-23.762-15.913
			c0-5.617,3.528-12.817,15.481-12.817c7.488,0,16.417,1.872,17.209,12.673H271.935z"/>
		<path fill="#1E1B1B" d="M299.438,872.317h6.265v7.201h-6.265v20.81c0,2.232,0.072,3.097,4.177,3.097
			c0.647,0,1.368-0.072,2.088-0.145v7.633c-1.584,0.072-3.168,0.144-4.753,0.144h-1.296c-8.713,0-10.297-3.312-10.297-8.28v-23.258
			h-5.185v-7.201h5.185v-10.368h10.081V872.317z"/>
		<path fill="#1E1B1B" d="M309.876,872.317h9.648v6.625h0.145c2.088-3.889,4.393-7.633,10.513-7.633
			c0.648,0,1.296,0.072,1.944,0.144v10.226c-0.864-0.145-1.944-0.145-2.88-0.145c-7.849,0-9.289,4.896-9.289,9.146v19.945h-10.081
			V872.317z"/>
		<path fill="#1E1B1B" d="M345.083,867.781h-10.08v-9.36h10.08V867.781z M345.083,872.317v38.308h-10.08v-38.308H345.083z"/>
		<path fill="#1E1B1B" d="M383.606,903.137c0,4.536,1.009,5.544,2.232,5.977v1.512h-10.873c-0.576-1.8-0.72-2.376-0.936-4.536
			c-2.305,2.376-5.545,5.544-12.386,5.544c-5.76,0-11.665-3.24-11.665-11.161c0-7.488,4.753-11.305,11.161-12.24l9.073-1.368
			c1.584-0.217,3.528-0.864,3.528-3.024c0-4.249-4.032-4.465-6.625-4.465c-5.04,0-5.904,3.097-6.192,5.329h-9.721
			c1.152-11.737,9.289-13.394,17.138-13.394c5.4,0,15.265,1.656,15.265,11.089V903.137z M373.742,891.976
			c-1.009,0.792-2.665,1.439-6.841,2.088c-3.744,0.648-6.841,1.584-6.841,5.761c0,3.528,2.736,4.608,4.681,4.608
			c4.464,0,9.001-2.881,9.001-7.561V891.976z"/>
		<path fill="#1E1B1B" d="M425.079,910.625h-10.081v-23.258c0-2.809-0.144-7.561-6.553-7.561c-4.464,0-7.92,3.024-7.92,8.856v21.962
			h-10.081v-38.308h9.648v5.617h0.145c1.368-2.305,4.248-6.625,11.521-6.625c7.488,0,13.321,4.393,13.321,12.817V910.625z"/>
		<path fill="#1E1B1B" d="M440.844,858.925h11.521c6.625,28.298,7.271,31.898,8.209,37.803h0.143
			c0.938-5.4,1.729-10.656,7.201-37.803h11.449c6.049,28.37,6.553,31.106,7.705,37.803h0.145c0.863-4.896,1.727-9.36,8.424-37.803
			h10.945l-14.545,51.7h-10.369c-5.328-25.346-6.266-30.387-7.992-40.323h-0.145c-1.584,9.937-2.449,13.681-7.992,40.323h-10.082
			L440.844,858.925z"/>
		<path fill="#1E1B1B" d="M538.334,903.137c0,4.536,1.008,5.544,2.232,5.977v1.512h-10.873c-0.576-1.8-0.721-2.376-0.936-4.536
			c-2.305,2.376-5.545,5.544-12.387,5.544c-5.76,0-11.664-3.24-11.664-11.161c0-7.488,4.752-11.305,11.16-12.24l9.074-1.368
			c1.584-0.217,3.527-0.864,3.527-3.024c0-4.249-4.031-4.465-6.625-4.465c-5.039,0-5.904,3.097-6.191,5.329h-9.721
			c1.152-11.737,9.289-13.394,17.137-13.394c5.4,0,15.266,1.656,15.266,11.089V903.137z M528.469,891.976
			c-1.008,0.792-2.664,1.439-6.84,2.088c-3.744,0.648-6.842,1.584-6.842,5.761c0,3.528,2.736,4.608,4.682,4.608
			c4.463,0,9-2.881,9-7.561V891.976z"/>
		<path fill="#1E1B1B" d="M555.539,910.625h-10.08v-51.7h10.08V910.625z"/>
		<path fill="#1E1B1B" d="M573.396,910.625h-10.08v-51.7h10.08v27.938l12.674-14.546h12.385l-13.537,14.834l13.896,23.474h-12.098
			l-9.145-16.417l-4.176,4.32V910.625z"/>
		<path fill="#1E1B1B" d="M640.574,910.625h-10.367l-5.977-27.938h-0.145l-5.977,27.938H607.74l-10.801-38.308h10.729l5.977,27.507
			h0.145l5.4-27.507h10.152l5.762,27.507h0.143l5.977-27.507h10.369L640.574,910.625z"/>
		<path fill="#1E1B1B" d="M684.35,903.137c0,4.536,1.01,5.544,2.232,5.977v1.512h-10.873c-0.576-1.8-0.719-2.376-0.936-4.536
			c-2.305,2.376-5.545,5.544-12.385,5.544c-5.76,0-11.666-3.24-11.666-11.161c0-7.488,4.754-11.305,11.162-12.24l9.072-1.368
			c1.584-0.217,3.529-0.864,3.529-3.024c0-4.249-4.033-4.465-6.625-4.465c-5.041,0-5.904,3.097-6.193,5.329h-9.721
			c1.152-11.737,9.289-13.394,17.139-13.394c5.4,0,15.264,1.656,15.264,11.089V903.137z M674.486,891.976
			c-1.01,0.792-2.666,1.439-6.842,2.088c-3.744,0.648-6.84,1.584-6.84,5.761c0,3.528,2.736,4.608,4.68,4.608
			c4.465,0,9.002-2.881,9.002-7.561V891.976z"/>
		<path fill="#1E1B1B" d="M710.703,909.977c-4.752,14.186-6.049,16.058-14.834,16.058c-1.367,0-3.096-0.072-4.535-0.144v-8.065
			c0.432,0.072,1.08,0.145,1.943,0.145c3.672,0,5.689-0.504,6.625-5.761l-14.113-39.892h11.232l8.209,28.227h0.145l7.848-28.227
			h10.658L710.703,909.977z"/>
	</g>
</g>
<path fill="#FAEE3F" d="M494.41,240.42c-0.008,0.021-0.014,0.041-0.021,0.062"/>
<g>
	<g>
		<path fill="#E70B8A" d="M494.32,240.667l-44.148,122.354h-36.301l-44.137-122.329c-2.631-7.144-4.066-14.864-4.066-22.921
			c0-36.646,29.709-66.354,66.355-66.354c36.645,0,66.354,29.708,66.354,66.354c0,7.954-1.398,15.582-3.967,22.648L494.32,240.667z"
			/>
		<path fill="#E70B8A" d="M607.352,339.095l-117.734,55.3l-25.668-25.668l55.289-117.71c3.191-6.91,7.637-13.385,13.332-19.082
			c25.914-25.913,67.928-25.912,93.84,0s25.914,67.927,0,93.84c-5.623,5.624-12.008,10.028-18.82,13.209L607.352,339.095z"/>
		<path fill="#E70B8A" d="M617.68,488.619l-122.355-44.148v-36.3l122.33-44.138c7.143-2.63,14.863-4.065,22.92-4.066
			c36.646,0,66.355,29.71,66.355,66.355c0,36.645-29.709,66.354-66.355,66.354c-7.953,0-15.582-1.399-22.648-3.968L617.68,488.619z"
			/>
		<path fill="#E70B8A" d="M519.252,601.651l-55.301-117.735l25.668-25.668l117.709,55.29c6.91,3.19,13.387,7.636,19.084,13.331
			c25.912,25.914,25.912,67.929,0,93.841s-67.928,25.913-93.842-0.001c-5.623-5.623-10.027-12.007-13.207-18.819L519.252,601.651z"
			/>
		<path fill="#E70B8A" d="M369.727,611.979l44.148-122.354h36.301l44.137,122.329c2.629,7.142,4.066,14.864,4.066,22.92
			c0,36.647-29.709,66.355-66.355,66.355c-36.645,0-66.354-29.708-66.354-66.356c0-7.952,1.398-15.58,3.967-22.646L369.727,611.979z
			"/>
		<path fill="#E70B8A" d="M256.695,513.551l117.734-55.3l25.668,25.668l-55.291,117.709c-3.189,6.909-7.635,13.386-13.33,19.083
			c-25.914,25.913-67.928,25.912-93.841,0s-25.913-67.927,0.001-93.841c5.623-5.623,12.006-10.027,18.82-13.208L256.695,513.551z"/>
		<path fill="#E70B8A" d="M246.367,364.026l122.355,44.148v36.3l-122.331,44.137c-7.141,2.629-14.863,4.066-22.919,4.067
			c-36.648-0.001-66.355-29.71-66.355-66.355c-0.001-36.646,29.708-66.354,66.356-66.354c7.952,0,15.579,1.398,22.646,3.968
			L246.367,364.026z"/>
		<path fill="#E70B8A" d="M344.795,250.994l55.301,117.735l-25.668,25.668l-117.711-55.291c-6.908-3.19-13.385-7.635-19.082-13.33
			c-25.914-25.915-25.912-67.929,0-93.841c25.912-25.913,67.928-25.913,93.842,0.001c5.623,5.623,10.027,12.005,13.207,18.819
			L344.795,250.994z"/>
	</g>
</g>
<circle fill="#FFD021" cx="432.022" cy="426.322" r="84.563"/>
</svg>
