<?xml version="1.0" encoding="utf-8"?>
<!-- Generator: Adobe Illustrator 15.0.0, SVG Export Plug-In . SVG Version: 6.00 Build 0)  -->
<!DOCTYPE svg PUBLIC "-//W3C//DTD SVG 1.0//EN" "http://www.w3.org/TR/2001/REC-SVG-20010904/DTD/svg10.dtd">
<svg version="1.0" id="Layer_1" xmlns="http://www.w3.org/2000/svg" xmlns:xlink="http://www.w3.org/1999/xlink" x="0px" y="0px"
	 width="848.082px" height="1247.124px" viewBox="0 0 848.082 1247.124" enable-background="new 0 0 848.082 1247.124"
	 xml:space="preserve">
<rect x="20" fill="#FFF8EE" width="828.082" height="1227.123"/>
<polyline fill="#EF4D4D" points="0,1247.123 828.082,1247.123 848.082,1227.123 20,1227.123 "/>
<polyline fill="#EF4D4D" points="20,1227.123 20,0 0,20 0,1247.123 "/>
<path fill="#DA3426" d="M799.023,724.322c0,38.107-30.893,69-69,69h-596c-38.107,0-69-30.893-69-69v-596c0-38.107,30.893-69,69-69
	h596c38.107,0,69,30.893,69,69V724.322z"/>
<circle fill="#008AC1" cx="432.023" cy="426.322" r="274.905"/>
<g>
	<g>
		<path fill="#1E1B1B" d="M100.575,910.625H89.774v-51.7h23.618c10.009,0,16.057,6.408,16.057,16.562
			c0,4.68-2.592,16.489-16.489,16.489h-12.385V910.625z M110.584,883.047c8.064,0,8.064-5.761,8.064-8.065
			c0-5.04-2.808-7.128-9.505-7.128h-8.568v15.193H110.584z"/>
		<path fill="#1E1B1B" d="M145.214,867.781h-10.08v-9.36h10.08V867.781z M145.214,872.317v38.308h-10.08v-38.308H145.214z"/>
		<path fill="#1E1B1B" d="M185.681,896.656c-0.36,3.96-3.456,14.977-17.497,14.977c-14.401,0-17.714-11.017-17.714-19.081
			c0-12.386,5.4-21.242,18.361-21.242c6.049,0,15.985,2.736,16.922,14.689h-10.225c-0.433-2.448-1.873-6.192-6.193-6.192h-0.504
			c-6.336,0-7.992,6.336-7.992,11.089c0,4.176,0.144,12.457,7.776,12.457c5.112,0,6.841-4.896,6.841-6.696H185.681z"/>
		<path fill="#1E1B1B" d="M225.209,910.625h-10.081v-23.258c0-2.809-0.144-7.561-6.553-7.561c-4.464,0-7.92,3.024-7.92,8.856v21.962
			h-10.081v-38.308h9.648v5.617h0.145c1.368-2.305,4.248-6.625,11.521-6.625c7.488,0,13.321,4.393,13.321,12.817V910.625z"/>
		<path fill="#1E1B1B" d="M242.773,867.781h-10.08v-9.36h10.08V867.781z M242.773,872.317v38.308h-10.08v-38.308H242.773z"/>
		<path fill="#1E1B1B" d="M283.24,896.656c-0.36,3.96-3.456,14.977-17.497,14.977c-14.401,0-17.714-11.017-17.714-19.081
			c0-12.386,5.4-21.242,18.361-21.242c6.049,0,15.985,2.736,16.922,14.689h-10.225c-0.433-2.448-1.873-6.192-6.193-6.192h-0.504
			c-6.336,0-7.992,6.336-7.992,11.089c0,4.176,0.144,12.457,7.776,12.457c5.112,0,6.841-4.896,6.841-6.696H283.24z"/>
		<path fill="#1E1B1B" d="M310.526,910.625h-11.377l18.434-51.7h12.457l18.218,51.7h-11.737l-3.313-10.657h-19.082L310.526,910.625z
			 M317.007,891.039h13.177l-6.408-20.449h-0.145L317.007,891.039z"/>
		<path fill="#1E1B1B" d="M352.141,872.317h9.648v6.625h0.145c2.088-3.889,4.393-7.633,10.513-7.633
			c0.648,0,1.296,0.072,1.944,0.144v10.226c-0.864-0.145-1.944-0.145-2.88-0.145c-7.849,0-9.289,4.896-9.289,9.146v19.945h-10.081
			V872.317z"/>
		<path fill="#1E1B1B" d="M409.527,899.392c-2.664,9.217-10.297,12.241-16.85,12.241c-10.801,0-19.081-5.185-19.081-20.953
			c0-4.608,1.584-19.37,18.361-19.37c7.561,0,18.002,3.601,18.002,21.098v1.801h-26.282c0.288,2.88,0.864,9.36,9,9.36
			c2.809,0,5.689-1.44,6.481-4.177H409.527z M399.591,887.655c-0.576-6.192-4.536-8.065-7.776-8.065
			c-4.753,0-7.272,3.024-7.849,8.065H399.591z"/>
		<path fill="#1E1B1B" d="M445.527,903.137c0,4.536,1.009,5.544,2.232,5.977v1.512h-10.873c-0.576-1.8-0.72-2.376-0.936-4.536
			c-2.305,2.376-5.545,5.544-12.386,5.544c-5.76,0-11.665-3.24-11.665-11.161c0-7.488,4.753-11.305,11.161-12.24l9.073-1.368
			c1.584-0.217,3.528-0.864,3.528-3.024c0-4.249-4.032-4.465-6.625-4.465c-5.04,0-5.904,3.097-6.192,5.329h-9.721
			c1.152-11.737,9.289-13.394,17.138-13.394c5.4,0,15.265,1.656,15.265,11.089V903.137z M435.663,891.976
			c-1.009,0.792-2.665,1.439-6.841,2.088c-3.744,0.648-6.841,1.584-6.841,5.761c0,3.528,2.736,4.608,4.681,4.608
			c4.464,0,9.001-2.881,9.001-7.561V891.976z"/>
	</g>
</g>
<path fill="#FAEE3F" d="M494.41,240.42c-0.007,0.021-0.014,0.041-0.021,0.062"/>
<g>
	<g>
		<path fill="#FFD021" d="M494.321,240.667l-44.149,122.354h-36.3l-44.138-122.329c-2.63-7.144-4.065-14.864-4.065-22.921
			c0-36.646,29.709-66.354,66.354-66.354s66.354,29.708,66.354,66.354c0,7.954-1.399,15.582-3.968,22.648L494.321,240.667z"/>
		<path fill="#FFD021" d="M607.353,339.095l-117.735,55.3l-25.668-25.668l55.29-117.71c3.191-6.91,7.636-13.385,13.332-19.082
			c25.913-25.913,67.928-25.912,93.84,0s25.913,67.927,0,93.84c-5.624,5.624-12.008,10.028-18.82,13.209L607.353,339.095z"/>
		<path fill="#FFD021" d="M617.68,488.619l-122.354-44.148v-36.3l122.329-44.138c7.143-2.63,14.864-4.065,22.92-4.066
			c36.647,0,66.355,29.71,66.355,66.355c0,36.645-29.708,66.354-66.355,66.354c-7.953,0-15.581-1.399-22.647-3.968L617.68,488.619z"
			/>
		<path fill="#FFD021" d="M519.252,601.651l-55.3-117.735l25.668-25.668l117.709,55.29c6.91,3.19,13.386,7.636,19.083,13.331
			c25.913,25.914,25.912,67.929,0,93.841s-67.927,25.913-93.841-0.001c-5.623-5.623-10.027-12.007-13.208-18.819L519.252,601.651z"
			/>
		<path fill="#FFD021" d="M369.728,611.979l44.148-122.354h36.3l44.137,122.329c2.63,7.142,4.066,14.864,4.067,22.92
			c-0.001,36.647-29.71,66.355-66.355,66.355s-66.354-29.708-66.354-66.356c0-7.952,1.399-15.58,3.968-22.646L369.728,611.979z"/>
		<path fill="#FFD021" d="M256.695,513.551l117.735-55.3l25.668,25.668l-55.291,117.709c-3.19,6.909-7.635,13.386-13.33,19.083
			c-25.915,25.913-67.929,25.912-93.841,0c-25.913-25.912-25.913-67.927,0.001-93.841c5.623-5.623,12.006-10.027,18.819-13.208
			L256.695,513.551z"/>
		<path fill="#FFD021" d="M246.368,364.026l122.354,44.148v36.3l-122.33,44.137c-7.141,2.629-14.863,4.066-22.919,4.067
			c-36.648-0.001-66.355-29.71-66.355-66.355c-0.001-36.646,29.708-66.354,66.356-66.354c7.952,0,15.579,1.398,22.646,3.968
			L246.368,364.026z"/>
		<path fill="#FFD021" d="M344.796,250.994l55.3,117.735l-25.668,25.668l-117.71-55.291c-6.908-3.19-13.385-7.635-19.082-13.33
			c-25.914-25.915-25.912-67.929,0-93.841c25.911-25.913,67.927-25.913,93.841,0.001c5.623,5.623,10.027,12.005,13.208,18.819
			L344.796,250.994z"/>
	</g>
</g>
<circle fill="#DA3426" cx="432.023" cy="426.322" r="84.563"/>
</svg>
