<?xml version="1.0" encoding="utf-8"?>
<!-- Generator: Adobe Illustrator 15.0.0, SVG Export Plug-In . SVG Version: 6.00 Build 0)  -->
<!DOCTYPE svg PUBLIC "-//W3C//DTD SVG 1.0//EN" "http://www.w3.org/TR/2001/REC-SVG-20010904/DTD/svg10.dtd">
<svg version="1.0" id="Layer_1" xmlns="http://www.w3.org/2000/svg" xmlns:xlink="http://www.w3.org/1999/xlink" x="0px" y="0px"
	 width="848.082px" height="1247.124px" viewBox="0 0 848.082 1247.124" enable-background="new 0 0 848.082 1247.124"
	 xml:space="preserve">
<rect x="20" fill="#FFF8EE" width="828.082" height="1227.123"/>
<polyline fill="#DA3426" points="0,1247.123 828.082,1247.123 848.082,1227.123 20,1227.123 "/>
<polyline fill="#DA3426" points="20,1227.123 20,0 0,20 0,1247.123 "/>
<path fill="#DA3426" d="M799.023,724.322c0,38.107-30.893,69-69,69h-596c-38.107,0-69-30.893-69-69v-596c0-38.107,30.893-69,69-69
	h596c38.107,0,69,30.893,69,69V724.322z"/>
<circle fill="#FFD021" cx="432.023" cy="426.322" r="274.905"/>
<g>
	<g>
		<path fill="#1E1B1B" d="M97.479,890.711c0.072,2.881,1.513,8.354,10.945,8.354c5.112,0,10.801-1.225,10.801-6.697
			c0-4.033-3.888-5.113-9.36-6.408l-5.545-1.297c-8.353-1.943-16.417-3.816-16.417-15.193c0-5.76,3.096-15.912,19.873-15.912
			c15.842,0,20.09,10.369,20.162,16.705h-10.369c-0.288-2.305-1.151-7.777-10.585-7.777c-4.104,0-9,1.512-9,6.193
			c0,4.031,3.312,4.896,5.472,5.4l12.602,3.096c7.057,1.729,13.537,4.609,13.537,13.896c0,15.555-15.842,16.922-20.378,16.922
			c-18.865,0-22.105-10.873-22.105-17.281H97.479z"/>
		<path fill="#1E1B1B" d="M167.824,892.656c-0.36,3.959-3.456,14.977-17.497,14.977c-14.401,0-17.714-11.018-17.714-19.082
			c0-12.385,5.4-21.242,18.361-21.242c6.049,0,15.985,2.736,16.922,14.689h-10.225c-0.433-2.447-1.873-6.191-6.193-6.191h-0.504
			c-6.336,0-7.992,6.336-7.992,11.088c0,4.176,0.144,12.457,7.776,12.457c5.112,0,6.841-4.896,6.841-6.695H167.824z"/>
		<path fill="#1E1B1B" d="M206.633,906.625h-10.081v-23.258c0-2.809-0.144-7.561-6.553-7.561c-4.464,0-7.92,3.023-7.92,8.855v21.963
			h-10.081v-51.701h10.081v18.361h0.144c1.296-3.168,5.616-5.977,11.089-5.977c7.488,0,13.321,4.393,13.321,12.818V906.625z"/>
		<path fill="#1E1B1B" d="M231.184,907.633c-10.297,0-19.586-6.336-19.586-20.162c0-13.824,9.289-20.162,19.586-20.162
			s19.585,6.338,19.585,20.162C250.769,901.297,241.48,907.633,231.184,907.633z M231.184,875.807
			c-7.777,0-9.217,6.768-9.217,11.664s1.439,11.666,9.217,11.666c7.776,0,9.217-6.77,9.217-11.666S238.96,875.807,231.184,875.807z"
			/>
		<path fill="#1E1B1B" d="M273.015,907.633c-10.297,0-19.586-6.336-19.586-20.162c0-13.824,9.289-20.162,19.586-20.162
			s19.585,6.338,19.585,20.162C292.6,901.297,283.312,907.633,273.015,907.633z M273.015,875.807c-7.777,0-9.217,6.768-9.217,11.664
			s1.439,11.666,9.217,11.666c7.776,0,9.217-6.77,9.217-11.666S280.791,875.807,273.015,875.807z"/>
		<path fill="#1E1B1B" d="M307.86,906.625h-10.08v-51.701h10.08V906.625z"/>
	</g>
</g>
<path fill="#FAEE3F" d="M494.41,240.42c-0.007,0.021-0.014,0.041-0.021,0.062"/>
<path fill="#DA3426" d="M429.515,590.959c23.931,0,18.935,10.499,33.934,10.499c38,0,113.87-104.101,103.955-196.334
	c-7.955-74-47.121-90.146-68.944-90.151c-37.178-0.009-53.877,25.499-68.944,25.499s-31.767-25.508-68.944-25.499
	c-21.823,0.005-60.989,16.151-68.944,90.151c-9.915,92.233,65.955,196.334,103.955,196.334
	C410.58,601.458,405.584,590.959,429.515,590.959z"/>
<path fill="#35A74E" d="M426.082,303.125c12-24.667,33.334-69.667,80-69.667s59.999,42.166,95.333,65.667
	c-40.834-4.501-133.793,10.797-172.9,28.666C426.082,303.125,426.082,303.125,426.082,303.125z"/>
<polygon fill="#35A74E" points="385.581,256.124 426.082,303.125 428.515,327.791 373.581,271.124 "/>
<polygon fill="#FFFFFF" points="381.793,385.148 397.533,390.272 386.9,426.837 374.017,420.355 "/>
<polygon fill="#FFFFFF" points="410.052,393.776 425.792,398.9 415.159,435.465 402.275,428.983 "/>
</svg>
