<?xml version="1.0" encoding="utf-8"?>
<!-- Generator: Adobe Illustrator 15.0.0, SVG Export Plug-In . SVG Version: 6.00 Build 0)  -->
<!DOCTYPE svg PUBLIC "-//W3C//DTD SVG 1.0//EN" "http://www.w3.org/TR/2001/REC-SVG-20010904/DTD/svg10.dtd">
<svg version="1.0" id="Layer_1" xmlns="http://www.w3.org/2000/svg" xmlns:xlink="http://www.w3.org/1999/xlink" x="0px" y="0px"
	 width="848.082px" height="1247.124px" viewBox="0 0 848.082 1247.124" enable-background="new 0 0 848.082 1247.124"
	 xml:space="preserve">
<rect x="20" y="0" fill="#FFF8EE" width="828.083" height="1227.123"/>
<polyline fill="#008AC1" points="0,1247.123 828.082,1247.123 848.082,1227.123 20,1227.123 "/>
<polyline fill="#008AC1" points="20,1227.123 20,0 0,20 0,1247.123 "/>
<path fill="#008AC1" d="M799.023,724.322c0,38.107-30.893,69-69,69H134.022c-38.107,0-69-30.893-69-69v-596
	c0-38.107,30.892-69,69-69h596.001c38.107,0,69,30.893,69,69V724.322z"/>
<circle fill="#FFE37B" cx="432.022" cy="426.323" r="274.905"/>
<g>
	<g>
		<path fill="#1E1B1B" d="M119.728,854.925h11.233l-17.569,51.7h-10.297l-17.426-51.7h11.593l11.089,39.171h0.145L119.728,854.925z"
			/>
		<path fill="#1E1B1B" d="M145.213,863.781h-10.08v-9.36h10.08V863.781z M145.213,868.317v38.308h-10.08v-38.308H145.213z"/>
		<path fill="#1E1B1B" d="M163.07,906.625h-10.08v-51.7h10.08V906.625z"/>
		<path fill="#1E1B1B" d="M180.925,906.625h-10.08v-51.7h10.08V906.625z"/>
		<path fill="#1E1B1B" d="M219.448,899.137c0,4.536,1.009,5.544,2.232,5.977v1.512h-10.873c-0.576-1.8-0.72-2.376-0.936-4.536
			c-2.305,2.376-5.545,5.544-12.386,5.544c-5.76,0-11.665-3.24-11.665-11.161c0-7.488,4.753-11.305,11.161-12.24l9.073-1.368
			c1.584-0.217,3.528-0.864,3.528-3.024c0-4.249-4.032-4.465-6.625-4.465c-5.04,0-5.904,3.097-6.192,5.329h-9.721
			c1.152-11.737,9.289-13.394,17.138-13.394c5.4,0,15.265,1.656,15.265,11.089V899.137z M209.583,887.976
			c-1.009,0.792-2.665,1.439-6.841,2.088c-3.744,0.648-6.841,1.584-6.841,5.761c0,3.528,2.736,4.608,4.681,4.608
			c4.464,0,9.001-2.881,9.001-7.561V887.976z"/>
		<path fill="#1E1B1B" d="M260.705,868.317v36.291c0,6.625-0.504,17.642-19.369,17.642c-7.921,0-16.273-3.384-16.706-11.521h10.945
			c0.432,1.944,1.224,3.889,7.057,3.889c5.4,0,7.992-2.593,7.992-8.785v-4.608l-0.144-0.145c-1.656,2.953-4.177,5.761-10.225,5.761
			c-9.217,0-16.49-6.408-16.49-19.802c0-13.249,7.489-19.729,15.914-19.729c7.128,0,10.009,4.177,11.232,6.696h0.145v-5.688H260.705
			z M242.127,898.345c6.84,0,8.568-5.833,8.568-11.09c0-6.192-3.024-11.232-8.641-11.232c-3.744,0-7.921,2.736-7.921,11.665
			C234.134,892.584,236.151,898.345,242.127,898.345z"/>
		<path fill="#1E1B1B" d="M301.023,895.392c-2.664,9.217-10.297,12.241-16.85,12.241c-10.801,0-19.081-5.185-19.081-20.953
			c0-4.608,1.584-19.37,18.361-19.37c7.561,0,18.002,3.601,18.002,21.098v1.801h-26.282c0.288,2.88,0.864,9.36,9,9.36
			c2.809,0,5.689-1.44,6.481-4.177H301.023z M291.086,883.655c-0.576-6.192-4.536-8.065-7.776-8.065
			c-4.753,0-7.272,3.024-7.849,8.065H291.086z"/>
		<path fill="#1E1B1B" d="M357.616,871.846c-0.864-3.096-2.521-8.929-11.449-8.929c-5.184,0-12.816,3.456-12.816,18.074
			c0,9.288,3.672,17.641,12.816,17.641c5.977,0,10.153-3.384,11.449-9.721h10.801c-2.16,11.233-9.505,19.082-22.466,19.082
			c-13.753,0-23.618-9.289-23.618-27.146c0-18.073,10.441-27.29,23.763-27.29c15.481,0,21.745,10.656,22.321,18.289H357.616z"/>
		<path fill="#1E1B1B" d="M406.574,895.392c-2.664,9.217-10.297,12.241-16.85,12.241c-10.801,0-19.081-5.185-19.081-20.953
			c0-4.608,1.584-19.37,18.361-19.37c7.561,0,18.002,3.601,18.002,21.098v1.801h-26.282c0.288,2.88,0.864,9.36,9,9.36
			c2.809,0,5.689-1.44,6.481-4.177H406.574z M396.637,883.655c-0.576-6.192-4.536-8.065-7.776-8.065
			c-4.753,0-7.272,3.024-7.849,8.065H396.637z"/>
		<path fill="#1E1B1B" d="M446.174,906.625h-10.081v-23.258c0-2.809-0.144-7.561-6.553-7.561c-4.464,0-7.92,3.024-7.92,8.856v21.962
			H411.54v-38.308h9.648v5.617h0.145c1.368-2.305,4.248-6.625,11.521-6.625c7.488,0,13.321,4.393,13.321,12.817V906.625z"/>
		<path fill="#1E1B1B" d="M464.676,868.317h6.266v7.201h-6.266v20.81c0,2.232,0.072,3.097,4.178,3.097
			c0.646,0,1.367-0.072,2.088-0.145v7.633c-1.584,0.072-3.168,0.144-4.754,0.144h-1.295c-8.713,0-10.297-3.312-10.297-8.28v-23.258
			h-5.186v-7.201h5.186v-10.368h10.08V868.317z"/>
		<path fill="#1E1B1B" d="M507.014,895.392c-2.664,9.217-10.297,12.241-16.85,12.241c-10.801,0-19.082-5.185-19.082-20.953
			c0-4.608,1.584-19.37,18.361-19.37c7.561,0,18.002,3.601,18.002,21.098v1.801h-26.281c0.287,2.88,0.863,9.36,9,9.36
			c2.809,0,5.689-1.44,6.48-4.177H507.014z M497.076,883.655c-0.576-6.192-4.535-8.065-7.775-8.065c-4.754,0-7.273,3.024-7.85,8.065
			H497.076z"/>
		<path fill="#1E1B1B" d="M511.906,868.317h9.648v6.625h0.145c2.088-3.889,4.393-7.633,10.514-7.633
			c0.648,0,1.295,0.072,1.943,0.144v10.226c-0.863-0.145-1.943-0.145-2.879-0.145c-7.85,0-9.289,4.896-9.289,9.146v19.945h-10.082
			V868.317z"/>
	</g>
</g>
<path fill="#1E1B1B" d="M284.947,344.821v-60.116h12.264c82.82,0,104.9-42.944,106.738-75.458h70.549v135.578L284.947,344.821z"/>
<rect x="388.617" y="344.13" fill="#1E1B1B" width="85.881" height="299.963"/>
<path fill="#FAEE3F" d="M494.41,240.42c-0.008,0.021-0.014,0.041-0.021,0.062"/>
</svg>
